<svg aria-hidden="true" style="position: absolute; width: 0; height: 0; overflow: hidden;" version="1.1" xmlns="http://www.w3.org/2000/svg" xmlns:xlink="http://www.w3.org/1999/xlink">
<defs>
<symbol id="icon-menu" viewBox="0 0 48 32">
<path d="M0 5.334v-5.334h48v5.334h-48zM0 18.666h48v-5.332h-48v5.332zM0 32h48v-5.334h-48v5.334z"></path>
</symbol>
<symbol id="menu-close" viewBox="0 0 40 40">
<path d="M29.667 12.88 27.787 11l-7.454 7.453L12.88 11 11 12.88l7.453 7.453L11 27.787l1.88 1.88 7.453-7.454 7.454 7.454 1.88-1.88-7.454-7.454 7.454-7.453Z"/>
</symbol>
<symbol id="icon-instagram" viewBox="0 0 20 20">
<g clip-path="url(#a)"><path d="M19.98 5.88c-.046-1.063-.218-1.793-.464-2.426a4.88 4.88 0 0 0-1.157-1.774 4.922 4.922 0 0 0-1.77-1.153C15.952.281 15.226.11 14.163.063 13.093.012 12.753 0 10.037 0 7.322 0 6.982.012 5.915.059 4.853.105 4.122.277 3.49.523A4.88 4.88 0 0 0 1.715 1.68 4.924 4.924 0 0 0 .563 3.45C.316 4.087.145 4.813.098 5.876c-.051 1.07-.063 1.41-.063 4.126 0 2.715.012 3.055.059 4.122.047 1.063.219 1.793.465 2.426a4.932 4.932 0 0 0 1.156 1.774c.5.508 1.106.902 1.77 1.152.637.247 1.364.419 2.426.465 1.067.047 1.407.059 4.122.059 2.716 0 3.056-.012 4.122-.059 1.063-.046 1.793-.218 2.426-.464a5.116 5.116 0 0 0 2.927-2.927c.246-.637.418-1.364.465-2.426.047-1.067.058-1.407.058-4.122s-.004-3.055-.05-4.122Zm-1.8 8.166c-.044.977-.208 1.504-.344 1.856a3.318 3.318 0 0 1-1.9 1.898c-.35.137-.882.301-1.855.344-1.055.047-1.371.059-4.04.059-2.668 0-2.989-.012-4.04-.059-.977-.043-1.504-.207-1.856-.344a3.077 3.077 0 0 1-1.148-.746 3.11 3.11 0 0 1-.747-1.148c-.136-.352-.3-.883-.343-1.856-.047-1.055-.059-1.372-.059-4.04 0-2.669.012-2.99.059-4.04.043-.977.207-1.504.343-1.856A3.04 3.04 0 0 1 3 2.965a3.105 3.105 0 0 1 1.15-.746c.35-.137.882-.3 1.855-.344 1.055-.046 1.372-.058 4.04-.058 2.672 0 2.989.012 4.04.058.977.043 1.504.207 1.856.344.433.16.828.414 1.148.746.332.325.586.715.747 1.15.136.35.3.882.343 1.855.047 1.055.059 1.371.059 4.04 0 2.668-.012 2.98-.059 4.036Z"/><path d="M10.037 4.864A5.139 5.139 0 0 0 4.9 10.002a5.139 5.139 0 1 0 5.138-5.138Zm0 8.47a3.333 3.333 0 1 1 .001-6.666 3.333 3.333 0 0 1 0 6.667ZM16.578 4.661a1.2 1.2 0 1 1-2.4 0 1.2 1.2 0 0 1 2.4 0Z"/></g>
</symbol>
<symbol id="icon-twitter" viewBox="0 0 20 20">
<path d="M0 .542h5.915l5.468 7.354L18.189.374l1.617.028-7.616 8.552L20 19.459h-5.913l-5.161-6.854-6.303 7.021H1.031l7.113-8.023L0 .542zm5.357 1.086H2.233l12.499 16.716h3.067L5.357 1.628z"/>
</symbol>
<symbol id="icon-facebook" viewBox="0 0 20 20">
<path d="M13.331 3.32h1.826V.14a23.576 23.576 0 0 0-2.66-.14C9.865 0 8.061 1.656 8.061 4.7v2.8H5.156v3.555h2.905V20h3.562v-8.944h2.787l.443-3.555h-3.23V5.05c0-1.027.277-1.73 1.708-1.73Z"/>
</symbol>
<symbol id="icon-linkedin" viewBox="0 0 20 20">
<g clip-path="url(#a)"><path d="M19.995 20H20v-7.336c0-3.588-.772-6.352-4.967-6.352-2.017 0-3.37 1.106-3.923 2.156h-.058V6.647H7.074v13.352h4.142v-6.611c0-1.741.33-3.425 2.486-3.425 2.124 0 2.156 1.987 2.156 3.536V20h4.137ZM.33 6.647h4.147V20H.33V6.647ZM2.402 0A2.402 2.402 0 0 0 0 2.402c0 1.325 1.076 2.424 2.402 2.424 1.325 0 2.401-1.098 2.401-2.424A2.403 2.403 0 0 0 2.402 0Z"/></g>
</symbol>
<symbol id="map-pin" viewBox="0 0 32 32">
<path d="M16 5a6.873 6.873 0 0 0-6.875 6.873v.002C9.125 18.75 16 27 16 27s6.875-8.25 6.875-15.125A6.874 6.874 0 0 0 16 5zm0 11c-2.279 0-4.125-1.846-4.125-4.125S13.721 7.75 16 7.75s4.125 1.846 4.125 4.125S18.279 16 16 16zm15.906-6.585c-.076-1.701-.352-2.87-.744-3.882a7.515 7.515 0 0 0-1.834-2.845A7.834 7.834 0 0 0 26.497.844C25.477.45 24.314.175 22.614.1 20.9.019 20.355 0 16.01 0l-.001.001c-4.346 0-4.89.019-6.597.094C7.71.17 6.541.445 5.528.839c-1.057.412-1.951.956-2.838 1.85A7.85 7.85 0 0 0 .838 5.521C.444 6.54.169 7.703.094 9.403.019 11.116 0 11.659 0 16.003c0 4.345.019 4.888.094 6.595.075 1.699.35 2.869.745 3.883.413 1.056.957 1.949 1.851 2.836a7.862 7.862 0 0 0 2.833 1.847c1.02.392 2.183.667 3.883.743 1.706.073 2.25.093 6.597.093s4.892-.02 6.599-.094c1.7-.076 2.869-.352 3.883-.743a7.828 7.828 0 0 0 2.832-1.847 7.842 7.842 0 0 0 1.847-2.83c.394-1.021.668-2.184.744-3.883.072-1.705.092-2.249.092-6.594s-.02-4.887-.094-6.594zm-2.873 13.041c-.068 1.565-.33 2.405-.551 2.969a4.941 4.941 0 0 1-1.194 1.839 5.037 5.037 0 0 1-1.837 1.199c-.563.219-1.414.482-2.971.551-1.689.073-2.196.094-6.467.094s-4.783-.021-6.466-.094c-1.564-.068-2.408-.332-2.971-.551a4.955 4.955 0 0 1-1.839-1.193 5.026 5.026 0 0 1-1.2-1.838c-.219-.563-.481-1.412-.551-2.97-.075-1.688-.094-2.194-.094-6.463 0-4.27.019-4.782.094-6.464.069-1.563.332-2.407.551-2.97a4.962 4.962 0 0 1 1.194-1.838 5.014 5.014 0 0 1 1.839-1.2c.563-.219 1.413-.481 2.971-.55 1.682-.075 2.189-.094 6.466-.094h.001c4.277 0 4.784.019 6.467.094 1.563.069 2.406.332 2.971.55a4.966 4.966 0 0 1 1.837 1.194 5.002 5.002 0 0 1 1.2 1.838c.221.563.481 1.412.551 2.969.074 1.688.094 2.195.094 6.464-.001 4.27-.021 4.781-.095 6.464z"/>
</symbol>
<symbol id="phone" viewBox="0 0 32 32">
<path d="M31.906 9.415c-.076-1.701-.352-2.87-.744-3.882a7.527 7.527 0 0 0-1.834-2.845A7.834 7.834 0 0 0 26.497.844C25.477.45 24.314.175 22.614.1 20.9.019 20.355 0 16.01 0l-.001.001c-4.346 0-4.89.019-6.597.094C7.71.17 6.541.445 5.528.839c-1.057.412-1.951.956-2.838 1.85A7.85 7.85 0 0 0 .838 5.521C.444 6.54.169 7.703.094 9.403.019 11.116 0 11.659 0 16.003c0 4.345.019 4.888.094 6.595.075 1.699.35 2.869.745 3.883.413 1.057.957 1.949 1.851 2.836a7.878 7.878 0 0 0 2.833 1.848c1.02.393 2.183.667 3.883.743 1.706.072 2.25.092 6.597.092s4.892-.02 6.599-.094c1.7-.076 2.869-.352 3.883-.743a7.828 7.828 0 0 0 2.832-1.847 7.853 7.853 0 0 0 1.848-2.83c.395-1.021.668-2.185.744-3.883.071-1.705.091-2.249.091-6.594s-.02-4.887-.094-6.594zm-2.873 13.041c-.068 1.565-.33 2.405-.551 2.969a4.966 4.966 0 0 1-1.194 1.839 5.037 5.037 0 0 1-1.837 1.199c-.563.219-1.414.482-2.971.551-1.689.073-2.196.094-6.467.094s-4.783-.021-6.466-.094c-1.564-.068-2.408-.332-2.971-.551a4.955 4.955 0 0 1-1.839-1.193 5.026 5.026 0 0 1-1.2-1.838c-.219-.563-.481-1.412-.551-2.97-.075-1.688-.094-2.194-.094-6.463 0-4.27.019-4.782.094-6.464.069-1.563.332-2.407.551-2.97a4.962 4.962 0 0 1 1.194-1.838 5.014 5.014 0 0 1 1.839-1.2c.563-.219 1.413-.481 2.971-.55 1.682-.075 2.189-.094 6.466-.094h.001c4.277 0 4.784.019 6.467.094 1.563.069 2.406.332 2.971.55a4.97 4.97 0 0 1 1.838 1.194 4.987 4.987 0 0 1 1.199 1.838c.222.563.481 1.412.552 2.969.073 1.688.094 2.195.094 6.464-.002 4.27-.022 4.781-.096 6.464zm-8.367-4.454c-1.336 1.328-1.336 2.664-2.664 2.664-1.334 0-2.669-1.336-4.001-2.664-1.336-1.334-2.667-2.669-2.667-4.001 0-1.336 1.331-1.336 2.667-2.667C15.332 9.999 11.334 6 9.999 6 8.667 6 6 9.999 6 9.999c0 2.667 2.739 8.075 5.334 10.668C13.927 23.258 19.33 26 22.002 26c0 0 3.998-2.666 3.998-3.998 0-1.336-3.998-5.334-5.334-4z"/>
</symbol>
<symbol id="mail" viewBox="0 0 24 24">
<path d="M4.8 19.499c-1.258 0-2.297-.998-2.299-2.25L2.499 6.751c.003-1.254 1.043-2.25 2.301-2.252v1c-.723.002-1.299.577-1.301 1.252v10.498c.002.673.578 1.247 1.301 1.25h14.4c.721-.003 1.297-.577 1.299-1.25V6.751c-.002-.673-.578-1.25-1.299-1.251H4.8v-1h14.4c1.256.002 2.295.998 2.299 2.252V17.25c-.004 1.252-1.043 2.25-2.299 2.25H4.8v-.001z"/><path d="m11.7 13.399-8.001-6a.5.5 0 0 1-.099-.7.502.502 0 0 1 .7-.101l7.699 5.774L19.7 6.598V6.6a.5.5 0 1 1 .6.799l-8 6a.496.496 0 0 1-.6 0z"/>
</symbol>
<symbol id="feedback-phone" viewBox="0 0 32 32">
<path d="M22 20c-2 2-2 4-4 4s-4-2-6-4-4-4-4-6 2-2 4-4-4-8-6-8-6 6-6 6c0 4 4.109 12.109 8 16s12 8 16 8c0 0 6-4 6-6s-6-8-8-6z"></path>
</symbol>
<symbol id="feedback-envelop" viewBox="0 0 32 32">
<path d="M29 4h-26c-1.65 0-3 1.35-3 3v20c0 1.65 1.35 3 3 3h26c1.65 0 3-1.35 3-3v-20c0-1.65-1.35-3-3-3zM12.461 17.199l-8.461 6.59v-15.676l8.461 9.086zM5.512 8h20.976l-10.488 7.875-10.488-7.875zM12.79 17.553l3.21 3.447 3.21-3.447 6.58 8.447h-19.579l6.58-8.447zM19.539 17.199l8.461-9.086v15.676l-8.461-6.59z"></path>
</symbol>
<symbol id="feedback-user" viewBox="0 0 32 32">
<path d="M18 22.082v-1.649c2.203-1.241 4-4.337 4-7.432 0-4.971 0-9-6-9s-6 4.029-6 9c0 3.096 1.797 6.191 4 7.432v1.649c-6.784 0.555-12 3.888-12 7.918h28c0-4.030-5.216-7.364-12-7.918z"></path>
</symbol>
<symbol id="feedback-checkmark" viewBox="0 0 32 32">
<path d="M27 4l-15 15-7-7-5 5 12 12 20-20z"></path>
</symbol>
<symbol id="alert-notification" viewBox="0 0 32 32">
<path d="M16 3c-3.472 0-6.737 1.352-9.192 3.808s-3.808 5.72-3.808 9.192c0 3.472 1.352 6.737 3.808 9.192s5.72 3.808 9.192 3.808c3.472 0 6.737-1.352 9.192-3.808s3.808-5.72 3.808-9.192c0-3.472-1.352-6.737-3.808-9.192s-5.72-3.808-9.192-3.808zM16 0v0c8.837 0 16 7.163 16 16s-7.163 16-16 16c-8.837 0-16-7.163-16-16s7.163-16 16-16zM14 22h4v4h-4zM14 6h4v12h-4z"></path>
</symbol>
<symbol id="alert-info" viewBox="0 0 32 32">
<path d="M14 9.5c0-0.825 0.675-1.5 1.5-1.5h1c0.825 0 1.5 0.675 1.5 1.5v1c0 0.825-0.675 1.5-1.5 1.5h-1c-0.825 0-1.5-0.675-1.5-1.5v-1z"></path>
<path d="M20 24h-8v-2h2v-6h-2v-2h6v8h2z"></path>
<path d="M16 0c-8.837 0-16 7.163-16 16s7.163 16 16 16 16-7.163 16-16-7.163-16-16-16zM16 29c-7.18 0-13-5.82-13-13s5.82-13 13-13 13 5.82 13 13-5.82 13-13 13z"></path>
</symbol>
<symbol id="alert-checkmark" viewBox="0 0 32 32">
<path d="M12.42 28.678l-12.433-12.238 6.168-6.071 6.265 6.167 13.426-13.214 6.168 6.071-19.594 19.285zM3.372 16.441l9.048 8.905 16.208-15.953-2.782-2.739-13.426 13.214-6.265-6.167-2.782 2.739z"></path>
</symbol>
<symbol id="audi" viewBox="0 0 120 90">
<path d="M109.112 40.986a17.22 17.22 0 0 0-1.016-3.285 18.132 18.132 0 0 0-1.605-2.971 17.434 17.434 0 0 0-2.139-2.59 17.2 17.2 0 0 0-2.593-2.138 16.798 16.798 0 0 0-2.969-1.606 17.177 17.177 0 0 0-3.285-1.017 17.801 17.801 0 0 0-3.519-.356 17.516 17.516 0 0 0-6.803 1.373c-1.034.434-2.03.981-2.972 1.606-.355.234-.693.495-1.033.756-.34-.261-.678-.513-1.033-.756a16.763 16.763 0 0 0-2.973-1.606 17.18 17.18 0 0 0-3.283-1.017 17.75 17.75 0 0 0-3.52-.356 17.448 17.448 0 0 0-6.803 1.373 18.02 18.02 0 0 0-2.974 1.606c-.374.252-.738.521-1.095.799a23.768 23.768 0 0 0-1.085-.799 16.754 16.754 0 0 0-2.972-1.606 17.136 17.136 0 0 0-3.283-1.017 17.763 17.763 0 0 0-3.519-.356 17.526 17.526 0 0 0-6.803 1.373 17.834 17.834 0 0 0-2.971 1.606c-.375.252-.731.514-1.078.791a19.351 19.351 0 0 0-1.078-.791 16.789 16.789 0 0 0-2.972-1.606 17.136 17.136 0 0 0-3.283-1.017 17.756 17.756 0 0 0-3.519-.356 17.48 17.48 0 0 0-9.773 2.979 17.47 17.47 0 0 0-2.589 2.138 17.417 17.417 0 0 0-2.138 2.59c-.6.938-1.138 1.937-1.572 2.971a17.108 17.108 0 0 0-1.016 3.285 17.699 17.699 0 0 0 .006 7.038 17.34 17.34 0 0 0 1.016 3.274 17.927 17.927 0 0 0 1.607 2.972A17.617 17.617 0 0 0 17.202 59a16.892 16.892 0 0 0 2.97 1.604 17.368 17.368 0 0 0 6.803 1.374 17.77 17.77 0 0 0 3.519-.354 17.503 17.503 0 0 0 3.283-1.02A17.89 17.89 0 0 0 36.748 59c.365-.252.73-.515 1.078-.791a16.9 16.9 0 0 0 4.048 2.395c1.052.443 2.156.791 3.276 1.02 1.146.232 2.336.354 3.519.354a17.77 17.77 0 0 0 3.519-.354 17.535 17.535 0 0 0 7.349-3.428c.356.279.723.552 1.096.804a16.892 16.892 0 0 0 2.974 1.604 17.359 17.359 0 0 0 6.803 1.374c1.184 0 2.371-.121 3.518-.354a17.48 17.48 0 0 0 3.283-1.02A18.11 18.11 0 0 0 80.184 59c.355-.233.695-.496 1.035-.757.338.261.678.513 1.031.757.939.633 1.93 1.171 2.974 1.604 1.051.443 2.152.791 3.273 1.02a17.84 17.84 0 0 0 3.52.354c1.183 0 2.371-.121 3.521-.354a17.405 17.405 0 0 0 3.28-1.02A17.919 17.919 0 0 0 101.792 59c.933-.626 1.799-1.349 2.59-2.14s1.513-1.657 2.14-2.59a16.646 16.646 0 0 0 1.604-2.972 17.102 17.102 0 0 0 1.019-3.284 17.82 17.82 0 0 0 .354-3.518 19.313 19.313 0 0 0-.387-3.51zM19.354 33.21a14.07 14.07 0 0 1 2.311-1.261 13.338 13.338 0 0 1 2.553-.79 13.777 13.777 0 0 1 2.746-.279c.921 0 1.851.097 2.745.279.877.182 1.738.442 2.555.79.808.339 1.59.766 2.311 1.261.157.104.313.217.47.33-.313.382-.608.782-.877 1.19a16.981 16.981 0 0 0-1.607 2.971 17.11 17.11 0 0 0-1.017 3.285 17.625 17.625 0 0 0 0 7.038 17.27 17.27 0 0 0 1.017 3.274 17.854 17.854 0 0 0 1.607 2.972c.278.41.574.81.886 1.191-.156.112-.313.227-.478.337-.729.496-1.501.913-2.311 1.261a13.7 13.7 0 0 1-5.3 1.069c-.921 0-1.851-.096-2.746-.278a13.31 13.31 0 0 1-4.865-2.052 14.187 14.187 0 0 1-2.014-1.657 13.903 13.903 0 0 1-2.92-4.329 13.305 13.305 0 0 1-.79-2.557 13.758 13.758 0 0 1 0-5.49c.183-.878.443-1.738.79-2.556.34-.808.764-1.59 1.26-2.311a14.212 14.212 0 0 1 1.66-2.016 13.403 13.403 0 0 1 2.014-1.672zm18.019 18.913a13.864 13.864 0 0 1-1.26-2.311 13.447 13.447 0 0 1-.79-2.557 13.776 13.776 0 0 1-.278-2.746 13.712 13.712 0 0 1 1.068-5.3c.339-.808.765-1.59 1.26-2.311.139-.208.296-.417.453-.625.156.208.304.417.451.625a13.37 13.37 0 0 1 2.051 4.867c.183.894.278 1.823.278 2.744a13.696 13.696 0 0 1-1.069 5.303c-.339.81-.764 1.59-1.26 2.311-.138.209-.294.418-.451.627a7.3 7.3 0 0 1-.453-.627zm4.089 2.154a16.897 16.897 0 0 0 1.608-2.973 17.043 17.043 0 0 0 1.016-3.281 17.62 17.62 0 0 0 0-7.039 17.51 17.51 0 0 0-1.016-3.285 17.85 17.85 0 0 0-1.608-2.971 16.1 16.1 0 0 0-.886-1.19c.156-.113.313-.227.469-.33.73-.495 1.503-.912 2.311-1.261a13.325 13.325 0 0 1 2.554-.79 13.774 13.774 0 0 1 2.745-.279c.92 0 1.851.097 2.745.279a13.5 13.5 0 0 1 2.554.79 12.9 12.9 0 0 1 2.311 1.261c.167.113.33.228.486.348a16.981 16.981 0 0 0-2.475 4.144 17.182 17.182 0 0 0-1.017 3.285 17.598 17.598 0 0 0-.356 3.518c0 1.182.122 2.373.356 3.52a17.27 17.27 0 0 0 1.017 3.274 18.002 18.002 0 0 0 1.607 2.972c.277.41.564.801.877 1.184-.165.122-.322.234-.495.347-.729.496-1.502.913-2.311 1.263a13.693 13.693 0 0 1-5.299 1.067c-.921 0-1.85-.096-2.745-.278a13.447 13.447 0 0 1-2.554-.789 13.297 13.297 0 0 1-2.311-1.263 5.837 5.837 0 0 1-.469-.337c.315-.377.611-.775.886-1.186zm17.628-2.154a13.791 13.791 0 0 1-1.26-2.311 13.45 13.45 0 0 1-.791-2.557 13.776 13.776 0 0 1-.278-2.746 13.715 13.715 0 0 1 1.069-5.3 12.9 12.9 0 0 1 1.26-2.311c.14-.208.287-.409.435-.608.147.2.295.4.435.608.495.729.913 1.503 1.26 2.311.349.826.617 1.687.789 2.556a13.611 13.611 0 0 1 0 5.49c-.18.878-.44 1.737-.789 2.557-.34.81-.765 1.59-1.26 2.311-.139.209-.287.408-.435.609-.148-.201-.294-.4-.435-.609zm4.066 2.154a16.827 16.827 0 0 0 1.607-2.973 17.48 17.48 0 0 0 1.018-3.281 17.692 17.692 0 0 0 0-7.039 17.665 17.665 0 0 0-1.018-3.285 18.142 18.142 0 0 0-1.607-2.971 16.773 16.773 0 0 0-.869-1.182c.156-.123.322-.234.488-.348a13.341 13.341 0 0 1 4.864-2.051 13.784 13.784 0 0 1 2.746-.278 13.603 13.603 0 0 1 5.303 1.069c.81.338 1.59.764 2.312 1.26.14.095.278.192.407.287-.321.399-.625.808-.911 1.234a16.785 16.785 0 0 0-1.607 2.971 17.385 17.385 0 0 0-1.372 6.803c0 1.18.119 2.372.354 3.518.228 1.12.573 2.227 1.018 3.275a18.183 18.183 0 0 0 1.607 2.971c.284.428.59.836.92 1.233-.138.104-.277.2-.416.296a13.333 13.333 0 0 1-4.867 2.051c-.896.184-1.824.276-2.748.276a13.538 13.538 0 0 1-5.299-1.067 13.282 13.282 0 0 1-2.311-1.26c-.166-.114-.332-.227-.488-.35.305-.359.592-.756.869-1.159zm17.541-2.154a13.72 13.72 0 0 1-1.26-2.311 13.033 13.033 0 0 1-.791-2.557 13.777 13.777 0 0 1-.279-2.746c0-.92.096-1.851.279-2.744.184-.878.44-1.738.791-2.556.34-.808.764-1.59 1.26-2.311.156-.234.322-.46.496-.688a13.798 13.798 0 0 1 1.754 2.999c.348.826.617 1.687.791 2.556.182.894.277 1.823.277 2.744a13.622 13.622 0 0 1-1.068 5.303 12.77 12.77 0 0 1-1.26 2.311c-.156.234-.32.461-.494.688a14.749 14.749 0 0 1-.496-.688zm4.177 2.154a16.836 16.836 0 0 0 1.609-2.973 17.554 17.554 0 0 0 1.018-3.281 17.692 17.692 0 0 0 0-7.039 17.665 17.665 0 0 0-1.018-3.285 18.077 18.077 0 0 0-1.609-2.971 17.247 17.247 0 0 0-.909-1.234c.139-.095.277-.2.416-.295a13.342 13.342 0 0 1 4.87-2.051 13.741 13.741 0 0 1 2.744-.278c.92 0 1.85.096 2.745.278.878.183 1.736.442 2.554.791.812.338 1.59.764 2.313 1.26a13.73 13.73 0 0 1 3.674 3.683c.496.73.914 1.504 1.262 2.312a13.71 13.71 0 0 1 1.068 5.3 13.775 13.775 0 0 1-1.068 5.301c-.34.808-.766 1.591-1.262 2.312a14.333 14.333 0 0 1-1.658 2.017 12.964 12.964 0 0 1-2.016 1.658 14.04 14.04 0 0 1-2.313 1.262 13.64 13.64 0 0 1-5.299 1.065c-.923 0-1.853-.094-2.744-.276a13.818 13.818 0 0 1-2.56-.789 13.38 13.38 0 0 1-2.31-1.262c-.139-.097-.277-.19-.416-.296.32-.375.627-.781.909-1.209z"/>
</symbol>
<symbol id="bmw" viewBox="0 0 120 90">
<path d="M59.5 9.5c-19.33 0-35 15.67-35 35s15.67 35 35 35 35-15.67 35-35-15.67-35-35-35zm0 67.715c-18.071 0-32.715-14.645-32.715-32.715 0-18.071 14.644-32.715 32.715-32.715 18.07 0 32.715 14.644 32.715 32.715 0 18.07-14.645 32.715-32.715 32.715zm-14.789-49.7c1.112-1.172 1.757-2.548.644-3.837-.615-.703-1.641-.85-2.489-.498l-.088.029.029-.087c.118-.322.205-1.406-.703-2.139a2.115 2.115 0 0 0-1.553-.439c-1.054.117-1.845.82-4.071 3.28a45.943 45.943 0 0 0-2.226 2.666l6.063 5.741c2.022-2.226 2.813-3.046 4.394-4.716zm-7.879-1.406c1.23-1.494 2.519-2.841 3.105-3.369.175-.175.381-.351.645-.409.41-.118.82.176.908.585.088.409-.176.791-.439 1.113-.674.732-3.046 3.222-3.046 3.222l-1.173-1.142zm5.418-.966c.293-.322.498-.498.702-.585.264-.117.557-.146.821.029a.73.73 0 0 1 .322.762c-.088.352-.352.674-.585.938-.322.352-3.046 3.251-3.046 3.251l-1.259-1.171c0-.002 2.313-2.433 3.045-3.224zm14.352-8.757-.03-.411.117.38 1.933 4.335h1.756l1.935-4.335.117-.38-.03.411.205 5.798c.672.059 1.375.146 2.08.263l-.322-8.581c-.967-.117-1.934-.176-2.898-.234l-1.904 4.744-.059.352-.059-.352-1.904-4.744c-.966.029-1.933.117-2.899.234l-.322 8.582a26.611 26.611 0 0 1 2.079-.263l.205-5.799zm27.15 8.932-4.48 2.958-.293.264.234-.322 1.991-3.955-1.405-1.405-3.953 1.991-.322.234.265-.293 2.958-4.481a55.567 55.567 0 0 0-1.67-1.348l-4.51 7.089a32.495 32.495 0 0 1 1.787 1.523l4.246-2.197.264-.205-.204.264-2.196 4.218a28.799 28.799 0 0 1 1.553 1.845l7.088-4.511a34.815 34.815 0 0 0-1.353-1.669zM38.763 44.5H59.5V23.763A20.7 20.7 0 0 0 38.763 44.5zM59.5 65.236c11.452 0 20.736-9.256 20.736-20.736H59.5v20.736z"/>
</symbol>
<symbol id="chevrolet" viewBox="0 0 120 90">
<path d="m107.766 33.607-28.612.004c-.729 0-1.203-.214-1.203-1.22v-4.249c0-1.224-.659-1.871-1.854-1.871H43.338c-1.226 0-1.855.691-1.855 1.859v4.248c0 .895-.424 1.221-1.209 1.221l-18.75.004c-1.437 0-2.273.685-2.705 1.582L9.688 53.03a1.654 1.654 0 0 0-.188.761c0 .703.459 1.618 1.74 1.618l29.03-.004c.895 0 1.207.406 1.207 1.221v4.243c0 1.28.741 1.858 1.86 1.858h32.751c1.115 0 1.859-.541 1.859-1.848l-.004-4.242c0-.865.365-1.222 1.203-1.222l18.21-.003c1.252 0 2.156-.329 2.787-1.497l9.025-17.637c.199-.382.33-.598.33-1.049.004-1.203-1.029-1.622-1.732-1.622zm-7.214 7.108-4.353 8.517c-.273.496-.756.512-1.098.512H73.507c-.895 0-1.22.402-1.22 1.217v4.896c0 .811-.359 1.205-1.229 1.205H48.371c-.761 0-1.226-.27-1.226-1.217V50.95c0-.896-.411-1.213-1.225-1.213H19.441c-.65 0-1.098-.406-1.098-.976 0-.168.041-.319.113-.46l4.354-8.512c.167-.297.439-.514 1.095-.514l22.017.006c.76 0 1.231-.307 1.231-1.229v-4.898c0-.865.381-1.212 1.218-1.212l22.683-.005c.815 0 1.222.362 1.222 1.229v4.894c0 .843.392 1.213 1.23 1.213h26.058c.83 0 1.104.545 1.104.979-.003.162-.044.32-.116.463z"/>
</symbol>
<symbol id="citroen" viewBox="0 0 120 90">
<path d="M92.386 72.68c.033-.811.064-1.834.064-2.87 0-2.216-1.817-4.317-1.833-4.335C81.33 55.183 65.639 39.959 59.803 39.43c-.118-.012-.303 0-.303 0 .003 7.025.237 6.697-3.908 8.447-.427.182-14.325 6.055-27.58 18.063-1.611 1.821-1.462 3.643-1.462 3.643 0 1.102.034 1.855.071 3.092 6.114-5.241 24.257-20.137 32.879-20.137 8.618-.001 26.774 14.905 32.886 20.142zm-.25-8.592c.096.107 2.364 2.701 2.364 5.722 0 2.353-.157 4.721-.157 4.737-.005.115-.06 1.115-.613 1.387a.654.654 0 0 1-.287.065c-.21 0-.443-.095-.701-.284-.239-.211-23.913-21.113-33.242-21.113-9.329 0-33.002 20.902-33.252 21.123-.25.183-.48.275-.686.275a.65.65 0 0 1-.288-.066c-.556-.271-.611-1.271-.616-1.381-.001-.024-.158-2.391-.158-4.743 0-3.021 2.268-5.614 2.365-5.722l.001-.001c.986-1.093 24.224-26.734 32.634-26.734 8.412 0 31.649 25.641 32.636 26.735zm.217-15.797c.033-.807.064-1.83.064-2.866 0-2.214-1.815-4.313-1.832-4.331-9.277-10.281-24.953-25.49-30.782-26.018-.118-.013-.303-.001-.303-.001.003 7.019.237 6.69-3.903 8.44-.426.18-14.31 6.048-27.553 18.043-1.609 1.818-1.46 3.639-1.46 3.639 0 1.101.034 1.854.071 3.089C32.762 43.05 50.887 28.17 59.501 28.17c8.608 0 26.746 14.89 32.852 20.121zm-.249-8.583c.096.108 2.361 2.698 2.361 5.717 0 2.35-.155 4.715-.158 4.731-.003.115-.058 1.113-.611 1.385a.64.64 0 0 1-.287.065c-.209 0-.443-.093-.7-.283-.237-.211-23.889-21.092-33.209-21.092-9.319 0-32.969 20.881-33.218 21.103-.25.184-.479.274-.686.274a.637.637 0 0 1-.288-.066c-.555-.271-.609-1.271-.614-1.378a81.537 81.537 0 0 1-.158-4.739c0-3.02 2.266-5.609 2.362-5.716l.001-.001C27.883 38.616 51.098 13 59.5 13c8.403 0 31.617 25.616 32.604 26.708z"/>
</symbol>
<symbol id="daewoo" viewBox="0 0 120 90">
<path d="M101.812 32.682c-17.305 2.285-33.125 21.74-31.047 45.755 21.963-3.874 41.629-24.339 31.047-45.755zm-4.305-6.754c-1.439-1.914-5.564-5.848-8.179-7.48C76.951 30.944 64.617 51.1 66.28 79.104c.876-.164 1.945-.235 2.894-.416-.577-19.426 6.22-40.976 28.333-52.76zM82.502 14.53c-2.599-1.366-7.317-3.043-10.479-3.607-6.201 22.425-9.733 30.099-9.972 68.522l2.837-.178C63.997 51.93 70.153 38.41 82.502 14.53zM64.603 9.781c-3.177-.296-6.797-.401-10.552-.104 3.37 23.375 3.754 33.274 4.393 69.813a30.61 30.61 0 0 0 2.345-.03c-.147-36.302.638-46.096 3.814-69.679zM36.494 14.53c12.333 23.88 18.505 37.4 17.601 64.738l2.85.176c-.237-38.421-3.771-46.095-9.988-68.521-3.161.564-7.866 2.242-10.463 3.607zM21.503 25.928c22.114 11.785 28.896 33.333 28.318 52.759.965.179 2.048.252 2.909.416C54.377 51.1 42.073 30.945 29.682 18.449c-2.613 1.632-6.724 5.565-8.179 7.479zm-4.302 6.754c-10.612 21.416 9.066 41.88 31.032 45.755 2.063-24.013-13.744-43.47-31.032-45.755z"/>
</symbol>
<symbol id="ford" viewBox="0 0 120 90">
<path d="M59.5 25.73c-27.726 0-50 8.333-50 18.77 0 10.358 22.429 18.77 50 18.77s50-8.411 50-18.77c.078-10.281-22.43-18.77-50-18.77zm0 35.904c-26.479 0-47.897-7.633-47.897-17.134 0-9.424 21.495-17.134 47.897-17.134 26.479 0 47.897 7.633 47.897 17.134.077 9.501-21.418 17.134-47.897 17.134zm19.704-13.318v.155c0 .078.155.156.233.233 0 0 .078.078 0 .156-.312.701-.623 1.091-1.012 1.637a6.74 6.74 0 0 1-1.245 1.322c-.702.624-1.793 1.247-2.648.857-.391-.233-.545-.701-.545-1.169 0-1.168.545-2.414 1.557-3.66 1.168-1.479 2.569-2.258 3.428-1.791.933.392.699 1.481.232 2.26zm-24.766-7.788a1.5 1.5 0 0 1 .545-1.402c.233-.233.545-.233.779-.078s.078.624-.078 1.013c-.234.39-.623.701-1.013.701-.155-.078-.233-.078-.233-.234zM59.5 28.845c-25.545 0-46.262 7.088-46.262 15.732 0 8.567 20.716 15.654 46.262 15.654 25.545 0 46.263-7.086 46.263-15.731S85.045 28.845 59.5 28.845zM35.747 54.858c-2.727 0-5.14-1.635-5.452-4.595-.155-1.636.312-3.038 1.247-4.284.779-1.091 2.181-1.947 3.349-2.181.39-.078.857 0 1.091.233.312.391.234.779-.078 1.013-.856.468-1.947 1.247-2.492 2.259-.467.855-.545 1.947.156 2.882 1.09 1.635 4.128 1.713 7.009-.935a16.032 16.032 0 0 0 1.947-2.025c1.246-1.402 1.635-1.946 3.349-4.283v-.077l-.077-.078c-1.091 0-2.103.389-3.037 1.09-.233.233-.624.155-.856-.077-.155-.312-.077-.701.234-.856 1.479-1.09 3.193-1.246 4.829-1.557 0 0 .155 0 .233-.156.701-.856 1.246-1.713 1.947-2.569.779-.936 1.714-1.714 2.415-2.415 1.013-.856 1.713-1.168 2.336-1.558.155-.077 0-.233-.078-.233-3.738-.7-7.633-1.636-11.292-.233-2.57.935-3.661 2.96-3.116 4.361.389.935 1.636 1.091 2.881.545 1.013-.467 1.869-1.246 2.57-2.258.39-.546 1.091-.155.701.777-1.091 2.57-3.194 4.596-5.686 4.673-2.18.078-3.504-1.479-3.504-3.427 0-3.816 4.284-6.387 8.801-6.775 5.452-.467 10.592 1.013 15.966 1.636 4.128.467 8.1.545 12.227-.468.468-.077.857.233.779.701-.078.701-.624 1.401-1.948 2.181-1.558.856-3.192 1.09-4.906 1.09-4.128 0-7.943-1.558-11.916-2.414 0 .155.078.389-.077.467-2.181 1.636-4.206 3.271-5.53 5.53-.078.077 0 .077.077.077 1.168-.077 2.181-.077 3.271-.155.155 0 .155-.078.155-.234-.077-.777.155-1.713.856-2.336.701-.623 1.636-.701 2.181-.233.701.545.623 1.48.234 2.181-.389.701-1.013 1.09-1.557 1.324 0 0-.156 0-.078.155 0 .155.856.623.935.779.078.077 0 .312-.077.389-.078.078-.234.155-.39.155s-.233-.077-.389-.155c-.389-.233-.857-.545-1.09-.935-.078-.155-.155-.155-.39-.155a83.302 83.302 0 0 0-4.206.389c-.312 0-.312.078-.389.234-1.947 3.192-4.05 6.698-6.386 9.034-2.496 2.801-4.599 3.502-6.779 3.502zm53.191-15.732c-.389.624-7.709 11.837-8.176 12.929-.156.39-.156.624 0 .856.389.545 1.245.234 1.791-.155 1.558-1.091 2.647-2.415 3.894-3.583.078-.078.156-.078.233 0 .156.156.469.39.624.546.078.078.078.156 0 .234a24.891 24.891 0 0 1-3.738 3.815c-1.947 1.479-3.895 1.869-4.905.934a1.82 1.82 0 0 1-.546-1.322c0-.234-.156-.234-.234-.156-1.169 1.167-3.192 2.414-4.984 1.479-1.557-.777-1.869-2.569-1.557-4.126 0 0 0-.235-.234-.157a5.933 5.933 0 0 1-1.245.701c-.624.233-.935.311-1.559.311-.778 0-1.401-.311-1.869-1.09-.233-.389-.39-1.012-.39-1.479 0-.078-.078-.156-.156 0-1.246 1.869-2.414 3.738-3.66 5.685-.077.078-.155.156-.233.156H59.58c-.155 0-.233-.078-.155-.233.467-.856 2.803-4.283 4.438-7.243.467-.777.389-1.246.077-1.402-.312-.233-1.011.078-1.635.547-1.558 1.167-2.881 3.036-3.582 3.894-.389.467-.779 1.245-1.792 2.336-1.635 1.791-3.816 2.804-5.841 2.103-1.168-.391-1.947-1.324-2.258-2.414-.078-.234-.156-.313-.312-.156-.312.391-1.013 1.013-1.635 1.402-.078.078-.233.156-.39.078-.155-.078-.545-.624-.624-.856-.077-.156 0-.233.079-.312.856-.702 1.246-1.169 1.635-1.558.233-.313.467-.701.701-1.324.467-1.246 1.635-3.583 3.895-4.83a8.105 8.105 0 0 1 2.727-.935c.389-.078.778 0 .856.312.077.156.155.468.233.623s0 .234-.155.313c-1.324.545-2.648 1.325-3.583 2.569-1.09 1.402-1.324 3.116-.623 4.05.545.702 1.323.857 2.18.546 1.247-.391 2.259-1.479 2.804-2.804.545-1.401.701-2.96.233-4.439-.078-.233 0-.467.155-.545.312-.233.779-.468.857-.546.312-.155.623-.077.778.155.467.624.701 1.558.701 2.571 0 .234.078.234.233.078.777-.857 1.558-1.714 2.335-2.414.779-.624 1.792-1.092 2.649-1.092 1.168 0 1.791.856 1.713 2.259 0 .156.156.156.233.078.39-.545.624-.778 1.014-1.09.855-.701 1.635-1.013 2.568-.935 1.091.077 1.948 1.09 1.792 2.181-.077.702-.545 1.402-1.167 1.714A1.53 1.53 0 0 1 69 47.229c-.39-.313-.468-.855-.39-1.324 0-.078-.078-.233-.234-.078-1.09 1.09-1.168 2.493-.467 3.193.777.702 1.869.234 2.726-.312 1.557-1.011 2.726-2.335 4.05-3.426.934-.701 1.947-1.325 3.115-1.48.622-.078 1.245-.078 1.869.233.856.313 1.324 1.013 1.402 1.636 0 .155.156.233.232.078.624-1.013 4.206-6.308 4.518-6.854.078-.155.156-.233.39-.233h2.492c.235.308.235.386.235.464z"/>
</symbol>
<symbol id="honda" viewBox="0 0 120 90">
<path d="M79.529 15.289c-1.93 8.876-2.7 12.93-4.438 19.297-1.735 6.37-2.703 11.772-4.822 14.667-1.545 2.122-4.055 3.474-6.756 3.665-2.51.193-5.211.193-7.719 0-2.701-.191-5.209-1.545-6.753-3.665-2.123-2.702-3.281-8.49-4.824-14.667-1.544-6.174-2.509-10.42-4.438-19.297l-2.896.193c-1.157 0-2.123.192-3.088.386 0 0 1.158 18.138 1.737 25.859.58 8.104 1.544 21.613 2.315 32.033 0 0 1.737.194 4.438.386 2.701.193 4.246.193 4.246.193 1.158-4.632 2.702-10.809 4.245-13.508.965-1.545 2.703-2.508 4.633-2.508 1.35-.195 2.701-.195 4.245-.195 1.351 0 2.703 0 4.246.195 1.93 0 3.666.965 4.632 2.508 1.737 2.702 3.088 8.876 4.245 13.508 0 0 1.353 0 4.247-.193 2.896-.191 4.438-.386 4.438-.386.966-10.227 1.931-23.931 2.315-32.033.578-7.721 1.736-25.859 1.736-25.859-.967-.193-1.93-.193-3.088-.386l-2.896-.193zm22.772 10.807c-1.158-11.579-8.878-13.895-15.632-15.052a154.97 154.97 0 0 0-13.313-1.158C69.879 9.693 61.97 9.5 59.652 9.5c-2.315 0-10.42.193-13.7.386-4.631 0-9.071.386-13.509 1.158-6.754 1.157-14.474 3.666-15.631 15.052-.386 3.859-.386 7.718-.386 11.578 0 5.21.386 10.42 1.159 15.629.386 4.44 1.35 8.688 2.508 13.124 1.737 5.019 3.28 6.562 5.018 7.913 3.087 2.121 6.368 3.279 10.034 3.857a227.694 227.694 0 0 0 48.63 0c3.666-.578 6.947-1.736 10.033-3.857 1.93-1.545 3.475-2.896 5.02-7.913 1.156-4.243 2.122-8.684 2.508-13.124.579-5.209.966-10.419 1.158-15.629.193-3.86 0-7.718-.193-11.578zm-4.246 19.298c-.193 6.367-1.156 12.543-2.701 18.72-.578 2.895-2.123 5.402-4.246 7.527-2.895 2.314-6.366 3.666-9.842 3.858a204.209 204.209 0 0 1-43.419 0c-3.666-.192-6.947-1.544-9.842-3.858-2.123-2.125-3.473-4.634-4.246-7.527-1.543-6.177-2.315-12.352-2.701-18.72-.386-6.367-.386-12.929.193-19.296 1.158-7.333 4.63-10.808 12.352-12.158 4.246-.771 8.685-1.158 12.929-1.352 3.667-.192 9.648-.386 13.122-.386 3.473 0 9.457 0 13.123.386 4.245.193 8.685.58 12.93 1.352 7.718 1.35 11.192 5.017 12.157 12.158.384 6.366.575 12.927.191 19.296z"/>
</symbol>
<symbol id="hyundai" viewBox="0 0 120 90">
<path d="M59.5 70.151c27.628 0 50-11.485 50-25.645 0-14.157-22.372-25.658-50-25.658-27.615 0-50 11.489-50 25.646s22.385 25.657 50 25.657zm9.391-12.6c-.816 1.923-2.265 6.06-5.548 7.695-1.009.474-2.255.724-3.333.758-.249.036-.415 0-.474 0-9.237 0-17.821-1.257-25.019-3.462-.058-.036-.225-.096-.225-.096-.723-.227-1.067-.533-1.067-.911 0-.322.154-.57.415-.818.095-.095.248-.226.438-.416 1.636-1.387 6.688-5.014 16.066-8.653 3.319-1.256 7.445-2.834 11.773-3.758 2.563-.491 11.965-1.9 6.974 9.661zm25.314-25.836c.154-.32.415-.593.854-.593.248-.036.532.033 1.008.344 5.869 3.616 9.377 8.133 9.377 13.03 0 8.856-11.357 16.444-27.577 19.776-1.043.226-1.73.226-1.98-.06-.153-.188-.226-.438 0-.782.097-.188.228-.345.438-.568 8.845-10.437 15.592-25.837 17.478-30.307.116-.367.26-.652.402-.84zm-43.941-.344c.818-1.921 2.265-6.061 5.549-7.695 1.007-.498 2.253-.724 3.332-.759h.499c9.2 0 17.795 1.293 24.981 3.462.059 0 .227.059.285.095.663.228 1.008.534 1.008.913 0 .344-.189.569-.416.818a8.152 8.152 0 0 1-.438.416c-1.672 1.387-6.652 5.015-16.066 8.606-3.318 1.293-7.445 2.834-11.773 3.794-2.562.509-11.952 1.934-6.961-9.65zm-9.058-6.652c1.042-.225 1.861-.225 2.075.059.154.154.226.438 0 .783-.095.189-.226.344-.415.593-8.857 10.436-15.592 25.835-17.478 30.271-.154.319-.285.629-.416.816-.19.32-.438.568-.853.593-.226 0-.534-.06-1.043-.343-5.869-3.616-9.486-8.135-9.486-13.03.048-8.822 11.407-16.421 27.616-19.742z"/>
</symbol>
<symbol id="mazda" viewBox="0 0 120 90">
<path d="M95.947 22.2c-.296-.354-.709-.768-1.004-1.122C86.082 11.567 71.609 9.5 59.441 9.5c-12.287 0-27.173 2.067-35.916 12.169-.119.177-.295.354-.414.531-4.253 5.139-6.911 12.405-6.911 22.212C16.2 74.656 40.774 79.5 59.441 79.5c18.726 0 43.359-4.844 43.359-35.088 0-9.807-2.599-17.132-6.853-22.212zm-64.683 4.785c5.848-8.979 16.895-11.165 28.177-11.165S81.593 17.888 87.5 26.689c.118.178.236.414.354.65-10.101 5.967-21.561 6.203-28.414 20.97-7.502-14.354-18.844-14.472-28.768-20.202.178-.354.414-.708.592-1.122zM59.441 73.18c-16.776.118-32.431-4.727-32.431-28.768 0-1.772 0-3.604.295-5.139.059-.355.178-.709.236-1.063 5.612 2.008 11.165 3.898 16.835 5.789 6.616 2.717 11.047 6.615 15.063 15.358 4.017-8.743 8.33-13.173 15.004-15.89 5.73-2.009 11.342-4.076 17.072-6.084.059.118.059.295.117.414.296 1.949.413 4.253.413 6.616.062 24.04-15.827 28.943-32.604 28.767z"/>
</symbol>
<symbol id="mercedes" viewBox="0 0 120 90">
<path d="M75.775 13.438C70.875 10.9 65.362 9.5 59.5 9.5s-11.375 1.4-16.275 3.938C32.112 19.3 24.5 31.025 24.5 44.5c0 13.475 7.612 25.2 18.813 31.063C48.125 78.013 53.638 79.5 59.5 79.5s11.287-1.487 16.188-4.025A34.799 34.799 0 0 0 94.5 44.5c0-13.475-7.612-25.2-18.725-31.062zM28 44.5c0-11.462 6.125-21.438 15.313-27.038 4.462-2.712 9.625-4.288 15.313-4.462l-3.938 28.612-11.375 8.838-11.55 9.013C29.4 55 28 49.925 28 44.5zm47.775 26.95C70.963 74.338 65.45 76 59.5 76s-11.55-1.662-16.275-4.55c-4.288-2.538-7.788-6.038-10.413-10.237l10.413-4.288 16.275-6.65 16.275 6.563 10.5 4.287c-2.625 4.287-6.3 7.787-10.5 10.325zm0-21L64.487 41.7 60.462 13c5.512.175 10.762 1.75 15.225 4.462C84.875 22.975 91 33.038 91 44.5c0 5.425-1.313 10.5-3.763 14.963L75.775 50.45z"/>
</symbol>
<symbol id="mitsubishi" viewBox="0 0 120 90">
<path d="M59.052 15.363 47.684 33.624 70.51 73.458l23.99-.09-12.174-19.693h-46.01L24.5 73.637h22.378l23.99-40.371z"/>
</symbol>
<symbol id="opel" viewBox="0 0 120 90">
<path d="M59.483 74.558c-16.437 0-30.07-13.627-30.07-30.058 0-.854.039-1.701.111-2.539l25.161 1.569-10.883 7.516a.571.571 0 0 0 .325 1.037H88.56C85.146 64.92 73.308 74.558 59.483 74.558m0-60.118c16.438 0 30.07 13.629 30.07 30.059 0 .848-.036 1.689-.108 2.521l-25.137-1.598 10.907-7.471a.571.571 0 0 0-.323-1.038H30.405C33.823 24.078 45.661 14.44 59.483 14.44m43.127 33.416-8.229-.522c.075-.935.115-1.881.115-2.834 0-19.33-15.676-35-35.015-35-16.731 0-30.721 11.733-34.187 27.416h-6.46c-.423 0-.801.201-1.042.513l-1.922 2.654a.656.656 0 0 0 .519 1.059l8.195.511a35.273 35.273 0 0 0-.117 2.847c0 19.33 15.676 35 35.013 35 16.731 0 30.721-11.731 34.188-27.416h6.493a1.31 1.31 0 0 0 1.041-.513l1.924-2.653a.663.663 0 0 0 .14-.403.653.653 0 0 0-.656-.659"/>
</symbol>
<symbol id="seat" viewBox="0 0 120 90">
<path d="M48.03 13.88c13.055-.457 26.123-.003 39.154.828 1.373.118 2.762.108 4.113.396.73.175 1.521.452 1.947 1.111.391.718.398 1.555.499 2.346.312 3.883.401 7.782.692 11.666-.563.068-1.127-.018-1.692-.036-10.052-.517-20.11-.946-30.179-.959-5.213.015-10.435-.036-15.644.215-1.263.185-2.692.604-3.421 1.722 3.941.695 7.875 1.445 11.815 2.153 13.058 2.427 26.126 4.8 39.185 7.223a907.006 907.006 0 0 0-.002 7.377c-7.344-1.207-14.674-2.509-22.012-3.755-15.788-2.702-31.571-5.441-47.363-8.117.031-2.729.148-5.458.206-8.189.1-2.162.038-4.354.53-6.479.331-1.499.944-3.005 2.088-4.076 1.974-1.94 4.829-2.486 7.486-2.76 4.192-.384 8.398-.511 12.598-.666zM24.5 39.833c22.611 4.136 45.213 8.342 67.821 12.503.494.119 1.022.129 1.498.309l.057.129c-.124 3.679-.195 7.357-.329 11.035-.087 2.269-.328 4.643-1.506 6.642-1.263 2.065-3.614 3.209-5.94 3.642-3.431.639-6.934.682-10.406.869-14.947.673-29.925.301-44.849-.718-1.192-.082-2.406-.104-3.563-.433-.6-.188-1.22-.49-1.559-1.039-.364-.722-.387-1.545-.477-2.33-.319-4.289-.489-8.588-.716-12.883 7.698.485 15.409.758 23.122.928 7.447.119 14.894.117 22.34.189 1.606.066 3.344-.236 4.562-1.355.178-.202.467-.391.438-.692-3.356-.5-6.693-1.12-10.043-1.667-13.478-2.285-26.963-4.549-40.439-6.848-.019-2.76 0-5.521-.011-8.281z"/>
</symbol>
<symbol id="skoda" viewBox="0 0 120 90">
<path d="M55.523 9.636c-7.383.954-13.872 3.822-19.033 8.414-.434.386-.925.816-1.09.957s-.834.832-1.486 1.536C17.975 37.78 22.928 65.318 43.851 75.786c23.517 11.766 51.116-5.628 50.644-31.917-.051-2.839-.107-3.474-.526-5.889-2.813-16.216-17.203-28.268-34.028-28.5-2.387-.034-3.16-.006-4.418.156m7.785 1.532C84.4 13.75 97.735 34.301 91.471 54.571c-3.149 10.19-11.589 18.621-21.856 21.834-16.382 5.126-33.872-2.845-40.824-18.604-4.611-10.452-3.184-24.154 3.412-32.756l.678-.894c7.048-9.3 18.967-14.386 30.427-12.983m-5.472 1.692c-20.433 1.166-34.471 21.131-28.595 40.668 6.073 20.191 29.827 28.903 47.523 17.431.829-.538 1.268-.85 2.206-1.571 1.995-1.535 4.237-3.802 5.685-5.75.258-.347.497-.654.532-.683.216-.179 2.027-3.131 2.507-4.086 10.484-20.865-4.123-45.4-27.387-46.001-.983-.026-2.095-.029-2.471-.008m4.47 2.884c24.17 2.28 34.801 32.031 17.565 49.157C64.1 80.572 37.798 73.437 31.62 51.809c-.906-3.171-1.193-8.849-.601-11.869l.267-1.381c2.715-14.139 16.389-24.195 31.02-22.815m-4.995 3.145c-1.072.099-2.669.369-3.884.654-2.344.552-2.358.733-.208 2.674 2.207 1.992 4.186 4.227 5.617 6.346.916 1.354.92 1.372.368 1.372-.899 0-1.7-.449-3.125-1.753-2.7-2.47-7.168-5.624-8.567-6.045-.784-.236-3.592 1.657-5.964 4.023-1.749 1.744-1.906 2.084-1.14 2.472 2.527 1.281 9.121 6.03 9.121 6.569 0 .634-1.515.383-3.523-.583-4.057-1.953-7.927-3.19-8.694-2.779-.509.272-2.082 4.043-2.65 6.352-.761 3.093-.708 3.236 1.359 3.637 8.272 1.607 13.216 5.857 14.611 12.557.311 1.488.202 2.055-.451 2.358-.54.251-.701.195-4.152-1.427l-1.87-.879H36.158l-.308.307c-.587.588-.529.726 1.235 2.924a52.07 52.07 0 0 1 2.427 3.335c1.4 2.138 1.103 1.952 3.126 1.952 1.926 0 1.604.102 3.84-1.215l1.42-.836 12.255-.027c14.263-.032 12.719-.181 12.719 1.225 0 1.384.372 1.453 3.102.577 2.22-.712 5.475-2.816 5.691-3.68.302-1.2-4.938-4.222-7.847-4.525-.784-.082-.912.069-.964 1.137-.05 1.05-.208 1.245-1.003 1.245-.459 0-.615-.048-.82-.254-.509-.509-.507-.534.303-3.707 3.019-11.829 1.563-21.558-4.351-29.097-.943-1.202-4.212-4.482-4.732-4.749-.421-.217-3.315-.31-4.94-.16m8.202 28.832c2.016.932 2.533 3.445 1.045 5.073-2.016 2.206-5.566.831-5.566-2.154-.001-2.38 2.372-3.912 4.521-2.919"/>
</symbol>
<symbol id="subaru" viewBox="0 0 120 90">
<path d="M94.026 23.658c-9.118-5.31-21.356-8.889-34.641-8.889s-25.409 3.579-34.526 8.889C15.497 29.198 9.5 36.943 9.5 44.671c0 7.631 5.882 15.246 15.359 20.785 9.003 5.311 21.242 8.774 34.526 8.774s25.637-3.464 34.641-8.774c9.477-5.539 15.474-13.17 15.474-20.785 0-7.843-5.997-15.473-15.474-21.013zm-.686 40.524c-8.889 5.195-20.898 8.545-33.954 8.545s-24.951-3.35-33.84-8.545c-8.889-5.311-14.542-12.354-14.542-19.51 0-7.271 5.653-14.428 14.657-19.738 8.791-5.196 20.784-8.66 33.726-8.66 13.039 0 25.049 3.464 33.84 8.66 9.134 5.31 14.787 12.467 14.787 19.738-.001 7.156-5.671 14.199-14.674 19.51zM46.102 43.397l22.287-4.608-22.516-4.967-4.853-11.209-4.608 11.781-20.555 4.396 20.555 4.379 4.837 12.484 4.853-12.256zm20.326 1.977-8.774 1.961 8.774 1.961 2.189 5.311 1.961-5.082 9.592-2.189-9.592-1.961-2.189-4.853-1.961 4.852zm27.369 0-1.96-4.853-2.206 4.853-8.529 1.961 8.529 1.961 2.206 5.311 1.96-5.082 9.576-2.189-9.576-1.962zm-8.088-5.196 1.961-5.311 9.592-1.977-9.592-1.96-2.189-4.853-1.961 4.853-8.774 1.961 8.774 1.977 2.189 5.31zm-9.003 12.01-2.189 4.837-8.546 1.978 8.546 1.961 2.189 5.195 2.189-5.195 9.592-1.961-9.82-2.206-1.961-4.609zm-25.409 1.487-1.961 5.082-8.774 1.977 8.774 1.732 2.19 5.425 1.977-5.196 9.46-1.961-9.46-2.206-2.206-4.853z"/>
</symbol>
<symbol id="suzuki" viewBox="0 0 120 90">
<path d="M94.492 58.152s-6.526 1.895-19.184 9.671C63.946 74.807 59.493 79.5 59.493 79.5L24.478 55.301s14.73-10.831 27.043-2.537l16.512 11.324 2.014-1.324-45.569-31.909s6.549-1.894 19.207-9.671C55.054 14.193 59.493 9.5 59.493 9.5l35.03 24.199s-14.73 10.838-27.043 2.537L50.967 24.904l-2.014 1.325 45.539 31.923"/>
</symbol>
<symbol id="toyota" viewBox="0 0 120 90">
<path d="M59.5 12.487c-27.534 0-50 14.376-50 32.013s22.466 32.012 50 32.012c27.535 0 50-14.375 50-32.012s-22.465-32.013-50-32.013zm13.841 5.934c4.424.848 8.57 2.101 12.294 3.686 3.205 1.659 5.086 3.613 5.086 5.732 0 4.276-7.667 7.98-18.614 9.602-.755-8.256-2.783-15.314-5.511-19.831 2.358.185 4.607.461 6.745.811zM59.5 17.334c4.147 0 7.629 8.792 8.607 20.605a91.722 91.722 0 0 1-17.214 0c.977-11.833 4.479-20.605 8.607-20.605zm-26.133 4.773c3.723-1.585 7.869-2.819 12.292-3.686a80.02 80.02 0 0 1 6.745-.811c-2.728 4.516-4.754 11.593-5.51 19.831-10.948-1.64-18.615-5.326-18.615-9.602.001-2.119 1.881-4.091 5.088-5.732zM13.941 44.5c0-6.432 3.723-12.348 9.934-17.029a7.752 7.752 0 0 0-.037.664c0 6.284 9.473 11.685 22.779 13.841-.037.903-.037 1.806-.037 2.728 0 11.131 2.249 20.974 5.677 26.815C30.583 69.435 13.941 58.101 13.941 44.5zm46.665 27.368h-2.212c-4.386-1.677-7.795-13.232-7.795-27.166 0-.737.019-1.456.037-2.175 2.838.295 5.806.461 8.865.461a85.83 85.83 0 0 0 8.864-.461c.02.719.038 1.457.038 2.175-.019 13.934-3.428 25.489-7.797 27.166zm6.137-.332c3.428-5.842 5.677-15.684 5.677-26.815 0-.921-.019-1.825-.038-2.728 13.307-2.156 22.781-7.556 22.781-13.841 0-.221-.02-.442-.038-.663 6.211 4.681 9.934 10.597 9.934 17.029 0 13.583-16.643 24.917-38.316 27.018z"/>
</symbol>
<symbol id="volkswagen" viewBox="0 0 120 90">
<path d="M59.5 9.5c-19.278 0-35 15.722-35 35s15.722 35 35 35 35-15.722 35-35c-.014-19.278-15.735-35-35-35zm0 65.958c-17.056 0-30.958-13.902-30.958-30.958S42.444 13.542 59.5 13.542 90.458 27.444 90.458 44.5 76.542 75.458 59.5 75.458zM33.809 44.5c0 10.603 6.467 19.736 15.668 23.656L35.008 36.753a25.48 25.48 0 0 0-1.199 7.747zM52.36 69.181c2.263.66 4.648 1.01 7.126 1.01 2.479 0 4.877-.35 7.141-1.01l-7.141-16.638-7.126 16.638zm31.632-32.414L69.523 68.144C78.711 64.236 85.19 55.103 85.19 44.5c0-2.694-.417-5.294-1.198-7.733zM72.446 22.325l-8.972 20.949h-7.949l-8.972-20.949a25.859 25.859 0 0 0-7.962 7.275L51.39 56.8l4.311-10.387h7.598L67.61 56.8l12.798-27.2a26.021 26.021 0 0 0-7.962-7.275zm-5.712-2.478a25.643 25.643 0 0 0-7.234-1.038 25.57 25.57 0 0 0-7.234 1.038L59.5 37.266l7.234-17.419z"/>
</symbol>
<symbol id="audi-inv" viewBox="0 0 120 90">
<path d="M54.275 51.298a17.316 17.316 0 0 1-1.017-3.274 17.598 17.598 0 0 1 0-7.038 17.182 17.182 0 0 1 1.017-3.285 16.981 16.981 0 0 1 2.475-4.144 12.9 12.9 0 0 0-2.797-1.609 13.5 13.5 0 0 0-2.554-.79 13.774 13.774 0 0 0-2.745-.279c-.921 0-1.851.097-2.746.279-.869.173-1.729.443-2.554.79a13.988 13.988 0 0 0-2.78 1.591c.313.382.609.781.886 1.19a17.81 17.81 0 0 1 1.608 2.971 17.532 17.532 0 0 1 1.016 10.323 17.022 17.022 0 0 1-1.016 3.281 16.862 16.862 0 0 1-1.608 2.973c-.277.41-.573.809-.886 1.185.148.121.312.233.469.337a13.292 13.292 0 0 0 4.865 2.051 13.71 13.71 0 0 0 2.746.279 13.767 13.767 0 0 0 5.299-1.068 13.84 13.84 0 0 0 2.311-1.262 8.96 8.96 0 0 0 .495-.347c-.313-.382-.6-.772-.877-1.183a17.952 17.952 0 0 1-1.607-2.971zm7.733-9.531a13.244 13.244 0 0 0-2.049-4.867c-.14-.208-.288-.408-.435-.608-.148.199-.295.4-.435.608a12.9 12.9 0 0 0-1.26 2.311 13.692 13.692 0 0 0-.791 8.046c.174.869.444 1.729.791 2.556.348.81.765 1.582 1.26 2.311.14.209.287.408.435.609.148-.201.296-.4.435-.609.495-.721.92-1.501 1.26-2.311.348-.818.609-1.678.789-2.556a13.703 13.703 0 0 0 0-5.49zm-29.449 9.531a17.316 17.316 0 0 1-1.017-3.274 17.618 17.618 0 0 1 0-7.038 17.11 17.11 0 0 1 1.017-3.285 16.981 16.981 0 0 1 1.607-2.971c.269-.408.564-.809.877-1.19-.157-.113-.313-.226-.47-.33a12.968 12.968 0 0 0-2.311-1.261 13.767 13.767 0 0 0-5.3-1.069c-.922 0-1.851.097-2.746.279-.868.173-1.729.443-2.554.79a14.07 14.07 0 0 0-2.311 1.261 13.294 13.294 0 0 0-2.014 1.675 14.157 14.157 0 0 0-1.66 2.016c-.496.721-.92 1.503-1.26 2.311a13.689 13.689 0 0 0 0 10.602 13.903 13.903 0 0 0 2.92 4.329 14.187 14.187 0 0 0 2.014 1.657c.731.496 1.504.923 2.311 1.261.818.35 1.677.609 2.555.791.895.183 1.825.278 2.746.278s1.85-.096 2.745-.278a13.241 13.241 0 0 0 2.555-.791c.81-.348 1.582-.765 2.311-1.261.165-.11.322-.225.478-.337a16.934 16.934 0 0 1-.886-1.191 17.952 17.952 0 0 1-1.607-2.974zm7.766-9.531a13.391 13.391 0 0 0-2.051-4.867 27.132 27.132 0 0 0-.451-.625c-.157.208-.314.417-.453.625a12.963 12.963 0 0 0-1.26 2.311 13.689 13.689 0 0 0 0 10.602c.349.81.765 1.582 1.26 2.311.14.219.296.427.453.627.157-.209.313-.418.451-.627.496-.721.921-1.501 1.26-2.311a13.64 13.64 0 0 0 1.069-5.302c0-.921-.096-1.851-.278-2.744zm64.214-2.572a13.896 13.896 0 0 0-2.92-4.327 13.616 13.616 0 0 0-2.016-1.668 12.883 12.883 0 0 0-2.313-1.26 13.515 13.515 0 0 0-2.553-.791 13.799 13.799 0 0 0-2.746-.278c-.922 0-1.852.096-2.744.278-.871.174-1.732.443-2.559.791-.809.348-1.58.764-2.311 1.26-.139.095-.277.2-.416.295.32.4.627.81.91 1.234A17.963 17.963 0 0 1 86.48 37.7c.441 1.06.791 2.164 1.018 3.285a17.67 17.67 0 0 1 0 7.038 17.384 17.384 0 0 1-1.018 3.281 16.932 16.932 0 0 1-1.609 2.973c-.283.428-.59.834-.91 1.209.139.104.277.199.416.295.73.496 1.502.921 2.311 1.262a13.762 13.762 0 0 0 5.303 1.066c.92 0 1.85-.094 2.746-.277a13.221 13.221 0 0 0 2.553-.789c.811-.35 1.582-.766 2.313-1.262a13.01 13.01 0 0 0 2.016-1.658 14.267 14.267 0 0 0 1.658-2.016c.496-.721.922-1.504 1.262-2.312a13.752 13.752 0 0 0 1.068-5.301c0-.922-.096-1.851-.279-2.746a13.357 13.357 0 0 0-.789-2.553zM75.885 51.289a17.31 17.31 0 0 1-1.372-6.793c0-1.183.119-2.372.354-3.519a17.17 17.17 0 0 1 1.018-3.284 17.531 17.531 0 0 1 2.519-4.205c-.129-.095-.27-.192-.408-.287a12.866 12.866 0 0 0-2.311-1.26 13.58 13.58 0 0 0-2.555-.791 13.78 13.78 0 0 0-2.748-.278c-.922 0-1.85.096-2.746.278a13.341 13.341 0 0 0-4.864 2.051c-.166.113-.332.225-.488.348.305.383.6.772.869 1.182a17.952 17.952 0 0 1 1.607 2.971c.443 1.06.789 2.164 1.018 3.285a17.67 17.67 0 0 1 0 7.038 17.24 17.24 0 0 1-1.018 3.281 16.922 16.922 0 0 1-1.607 2.973c-.277.402-.564.8-.869 1.162.156.123.322.235.488.35.73.495 1.502.921 2.311 1.26.816.348 1.676.609 2.553.791a13.856 13.856 0 0 0 5.494 0 13.333 13.333 0 0 0 4.866-2.051c.139-.096.279-.191.416-.296-.33-.397-.635-.806-.92-1.233a18.092 18.092 0 0 1-1.607-2.973zM-.5-.5v90h120v-90H-.5zm109.645 48.514a16.89 16.89 0 0 1-1.018 3.284 16.844 16.844 0 0 1-1.605 2.972c-.627.932-1.348 1.799-2.139 2.59s-1.658 1.513-2.59 2.139a17.554 17.554 0 0 1-6.254 2.624c-1.148.233-2.338.354-3.52.354s-2.373-.121-3.52-.354a17.272 17.272 0 0 1-3.273-1.019 17.104 17.104 0 0 1-2.975-1.605 23.538 23.538 0 0 1-1.031-.757c-.34.261-.68.522-1.035.757a17.574 17.574 0 0 1-6.256 2.624 17.73 17.73 0 0 1-7.038 0 17.212 17.212 0 0 1-3.283-1.019 17.087 17.087 0 0 1-4.069-2.408 17.44 17.44 0 0 1-1.094.803 17.829 17.829 0 0 1-2.971 1.605c-1.06.444-2.163.791-3.284 1.019a17.77 17.77 0 0 1-3.519.354c-1.182 0-2.373-.121-3.519-.354a17.369 17.369 0 0 1-3.276-1.019 17.105 17.105 0 0 1-4.048-2.396 19.73 19.73 0 0 1-1.078.791 17.574 17.574 0 0 1-6.254 2.624c-1.148.233-2.337.354-3.519.354s-2.372-.121-3.519-.354a17.222 17.222 0 0 1-3.284-1.019 17.096 17.096 0 0 1-2.97-1.605 17.61 17.61 0 0 1-4.727-4.729 17.888 17.888 0 0 1-1.607-2.972 17.386 17.386 0 0 1-1.37-6.794c0-1.181.122-2.372.35-3.518a17.108 17.108 0 0 1 1.016-3.285 19.689 19.689 0 0 1 1.572-2.971 17.417 17.417 0 0 1 2.138-2.59 17.47 17.47 0 0 1 2.589-2.138 17.76 17.76 0 0 1 2.971-1.606 17.554 17.554 0 0 1 6.802-1.373c1.182 0 2.373.123 3.519.356 1.129.226 2.232.573 3.283 1.017a16.92 16.92 0 0 1 2.972 1.606c.366.252.73.514 1.078.791.347-.277.703-.539 1.078-.791a17.76 17.76 0 0 1 2.971-1.606 17.6 17.6 0 0 1 3.284-1.017c1.147-.233 2.337-.356 3.519-.356s2.372.123 3.519.356c1.129.226 2.232.573 3.283 1.017 1.043.434 2.034.972 2.972 1.606.364.252.73.521 1.085.799.357-.277.722-.547 1.095-.799a17.818 17.818 0 0 1 2.973-1.606 17.567 17.567 0 0 1 3.283-1.017c1.148-.233 2.336-.356 3.52-.356s2.373.123 3.52.356c1.129.226 2.23.573 3.283 1.017 1.043.434 2.033.972 2.973 1.606.355.243.693.495 1.033.756.34-.261.678-.521 1.033-.756a17.858 17.858 0 0 1 2.973-1.606 17.614 17.614 0 0 1 3.283-1.017c1.148-.233 2.338-.356 3.52-.356s2.363.123 3.518.356c1.131.226 2.232.573 3.285 1.017 1.041.434 2.031.972 2.969 1.606a17.242 17.242 0 0 1 2.592 2.138c.791.79 1.512 1.659 2.139 2.59.625.938 1.17 1.938 1.605 2.971.445 1.06.791 2.164 1.016 3.285.238 1.146.361 2.337.389 3.51a17.983 17.983 0 0 1-.358 3.518zm-25.409-6.247a13.391 13.391 0 0 0-.791-2.556 13.798 13.798 0 0 0-1.754-2.999c-.174.228-.34.453-.496.688-.496.721-.92 1.503-1.26 2.311a13.691 13.691 0 0 0-1.07 5.3c0 .923.098 1.851.279 2.746.172.869.441 1.729.791 2.556a13.72 13.72 0 0 0 1.756 2.999c.174-.227.338-.453.494-.688a12.77 12.77 0 0 0 1.26-2.311c.348-.818.609-1.678.791-2.556a13.748 13.748 0 0 0 0-5.49z"/>
</symbol>
<symbol id="bmw-inv" viewBox="0 0 120 90">
<path d="M41.49 22.916c-.088-.409-.498-.703-.908-.585-.264.058-.47.234-.645.409-.586.528-1.875 1.875-3.105 3.369l1.173 1.142s2.372-2.49 3.046-3.222c.263-.322.527-.704.439-1.113zm2.02 3.371c.233-.264.497-.586.585-.938a.73.73 0 0 0-.322-.762c-.264-.175-.557-.146-.821-.029-.204.087-.409.263-.702.585-.732.791-3.045 3.222-3.045 3.224l1.259 1.171s2.724-2.899 3.046-3.251zM59.5 11.785c-18.071 0-32.715 14.644-32.715 32.715 0 18.07 14.644 32.715 32.715 32.715 18.07 0 32.715-14.645 32.715-32.715 0-18.071-14.645-32.715-32.715-32.715zm-4.86 2.081a32.162 32.162 0 0 1 2.899-.234l1.904 4.744.059.352.059-.352 1.904-4.744c.965.058 1.932.117 2.898.234l.322 8.581a27.441 27.441 0 0 0-2.08-.263l-.205-5.798.029-.411-.117.38-1.935 4.335h-1.756l-1.933-4.335-.117-.38.03.411-.205 5.799c-.674.058-1.377.146-2.079.263l.323-8.582zM34.254 26.49a45.943 45.943 0 0 1 2.226-2.666c2.226-2.46 3.017-3.163 4.071-3.28a2.115 2.115 0 0 1 1.553.439c.908.733.821 1.817.703 2.139l-.029.087.088-.029c.848-.352 1.874-.205 2.489.498 1.113 1.289.468 2.665-.644 3.837-1.581 1.67-2.372 2.49-4.394 4.716l-6.063-5.741zM59.5 65.236V44.5H38.763A20.7 20.7 0 0 1 59.5 23.763V44.5h20.736c0 11.48-9.284 20.736-20.736 20.736zm25.604-38.249-7.088 4.511a28.799 28.799 0 0 0-1.553-1.845l2.196-4.218.204-.264-.263.205-4.246 2.197a32.495 32.495 0 0 0-1.787-1.523l4.51-7.089c.645.498 1.142.909 1.67 1.348l-2.958 4.481-.265.293.322-.234 3.953-1.991 1.405 1.405-1.991 3.955-.234.322.293-.264 4.48-2.958c.439.498.996 1.202 1.352 1.669zM-.5-.5v90h120v-90H-.5zm60 80c-19.33 0-35-15.67-35-35s15.67-35 35-35 35 15.67 35 35-15.67 35-35 35z"/>
</symbol>
<symbol id="chevrolet-inv" viewBox="0 0 120 90">
<path d="M99.563 39.273H73.505c-.839 0-1.23-.37-1.23-1.213v-4.894c0-.867-.406-1.229-1.222-1.229l-22.683.005c-.837 0-1.218.347-1.218 1.212v4.898c0 .923-.471 1.229-1.231 1.229l-22.017-.006c-.656 0-.928.217-1.095.514l-4.354 8.512a.994.994 0 0 0-.113.46c0 .569.448.976 1.098.976h26.48c.814 0 1.225.316 1.225 1.213v4.895c0 .947.464 1.217 1.226 1.217h22.687c.87 0 1.229-.395 1.229-1.205V50.96c0-.814.325-1.217 1.22-1.217h21.595c.342 0 .824-.016 1.098-.512l4.353-8.517c.072-.143.113-.301.114-.462-.001-.434-.274-.979-1.104-.979zM-.5-.5v90h120v-90H-.5zm109.67 36.779-9.025 17.637c-.631 1.168-1.535 1.497-2.787 1.497l-18.21.003c-.838 0-1.203.356-1.203 1.222l.004 4.242c0 1.307-.744 1.848-1.859 1.848H43.337c-1.119 0-1.86-.578-1.86-1.858v-4.243c0-.814-.312-1.221-1.207-1.221l-29.03.004c-1.281 0-1.74-.915-1.74-1.618 0-.269.069-.534.188-.761l9.132-17.845c.432-.897 1.268-1.582 2.705-1.582l18.75-.004c.785 0 1.209-.326 1.209-1.221v-4.248c0-1.168.629-1.859 1.855-1.859h32.758c1.194 0 1.854.647 1.854 1.871v4.249c0 1.006.475 1.22 1.203 1.22l28.612-.004c.703 0 1.736.419 1.734 1.623 0 .451-.131.666-.33 1.048z"/>
</symbol>
<symbol id="citroen-inv" viewBox="0 0 120 90">
<path d="M-.5-.5v90h120v-90H-.5zm27.398 40.209C27.883 38.616 51.098 13 59.5 13c8.402 0 31.617 25.616 32.604 26.708.097.108 2.361 2.698 2.361 5.717 0 2.351-.154 4.716-.158 4.731-.002.115-.058 1.113-.611 1.385a.636.636 0 0 1-.286.064c-.209 0-.443-.092-.7-.282-.237-.212-23.89-21.092-33.21-21.092-9.319 0-32.969 20.88-33.218 21.103-.25.184-.479.273-.686.273a.65.65 0 0 1-.288-.065c-.555-.271-.609-1.271-.614-1.378a81.492 81.492 0 0 1-.158-4.739c0-3.02 2.266-5.609 2.362-5.716zm67.445 34.838c-.005.115-.06 1.115-.612 1.387a.644.644 0 0 1-.287.065c-.211 0-.443-.095-.701-.284-.24-.211-23.914-21.113-33.243-21.113S26.498 75.504 26.248 75.725c-.25.183-.48.275-.686.275a.637.637 0 0 1-.288-.066c-.556-.271-.611-1.271-.616-1.381-.001-.023-.158-2.391-.158-4.742 0-3.021 2.268-5.615 2.365-5.723l.001-.001c.986-1.093 24.224-26.734 32.634-26.734 8.412 0 31.648 25.641 32.637 26.735.096.107 2.363 2.701 2.363 5.723 0 2.352-.157 4.72-.157 4.736zM59.803 39.43c-.118-.012-.303 0-.303 0 .003 7.025.237 6.697-3.908 8.447-.427.182-14.325 6.055-27.58 18.063-1.611 1.821-1.462 3.644-1.462 3.644 0 1.103.034 1.854.071 3.092 6.114-5.241 24.257-20.137 32.879-20.137 8.618-.001 26.773 14.905 32.887 20.142.032-.811.063-1.834.063-2.869 0-2.217-1.817-4.317-1.833-4.336C81.33 55.184 65.639 39.959 59.803 39.43zm-33.148 8.856C32.762 43.05 50.887 28.17 59.501 28.17c8.608 0 26.746 14.89 32.853 20.121.032-.807.063-1.83.063-2.866 0-2.214-1.815-4.313-1.832-4.331-9.276-10.281-24.953-25.49-30.782-26.018-.118-.013-.303-.001-.303-.001.003 7.019.237 6.69-3.903 8.44-.426.18-14.31 6.048-27.553 18.043-1.609 1.818-1.46 3.639-1.46 3.639 0 1.101.034 1.854.071 3.089z"/>
</symbol>
<symbol id="daewoo-inv" viewBox="0 0 120 90">
<path d="M-.5-.5v90h120v-90H-.5zm48.733 78.938c-21.966-3.875-41.644-24.34-31.032-45.755 17.288 2.284 33.095 21.741 31.032 45.755zm4.497.666c-.861-.164-1.944-.237-2.909-.416.578-19.426-6.204-40.975-28.318-52.759 1.455-1.914 5.566-5.847 8.179-7.479C42.073 30.945 54.377 51.1 52.73 79.104zm1.365.164c.904-27.338-5.268-40.858-17.601-64.738 2.597-1.365 7.302-3.043 10.463-3.607 6.217 22.425 9.751 30.099 9.988 68.521l-2.85-.176zm4.349.222c-.639-36.539-1.023-46.438-4.393-69.813 3.754-.297 7.375-.192 10.552.104-3.176 23.583-3.961 33.377-3.813 69.679-.98.046-1.545.046-2.346.03zm3.607-.045c.238-38.423 3.771-46.097 9.972-68.522 3.162.564 7.881 2.241 10.479 3.607-12.349 23.88-18.505 37.4-17.614 64.738l-2.837.177zm4.229-.341C64.617 51.1 76.951 30.944 89.328 18.448c2.614 1.632 6.739 5.566 8.179 7.48-22.113 11.784-28.91 33.333-28.333 52.759-.948.181-2.018.252-2.894.417zm4.485-.666c-2.078-24.016 13.742-43.471 31.047-45.755 10.582 21.415-9.084 41.88-31.047 45.755z"/>
</symbol>
<symbol id="ford-inv" viewBox="0 0 120 90">
<path d="M49.301 42.088a83.302 83.302 0 0 1 4.206-.389c.235 0 .312 0 .39.155.233.39.701.702 1.09.935.156.078.233.155.389.155a.595.595 0 0 0 .39-.155c.077-.077.155-.312.077-.389-.079-.156-.935-.624-.935-.779-.078-.155.078-.155.078-.155.544-.234 1.168-.623 1.557-1.324.389-.701.467-1.636-.234-2.181-.545-.468-1.48-.39-2.181.233s-.933 1.559-.856 2.336c0 .156 0 .234-.155.234-1.09.078-2.103.078-3.271.155-.077 0-.155 0-.077-.077 1.324-2.259 3.349-3.894 5.53-5.53.155-.078.077-.312.077-.467 3.973.856 7.788 2.414 11.916 2.414 1.714 0 3.349-.234 4.906-1.09 1.323-.78 1.87-1.48 1.948-2.181.078-.468-.312-.778-.779-.701-4.127 1.013-8.1.935-12.227.468-5.375-.623-10.515-2.103-15.967-1.636-4.517.388-8.801 2.959-8.801 6.775 0 1.948 1.324 3.505 3.504 3.427 2.492-.077 4.595-2.103 5.686-4.673.39-.932-.311-1.323-.701-.777-.701 1.012-1.557 1.791-2.57 2.258-1.245.546-2.492.39-2.881-.545-.545-1.401.546-3.426 3.116-4.361 3.659-1.403 7.554-.467 11.292.233.078 0 .233.156.078.233-.623.39-1.323.702-2.336 1.558-.701.701-1.636 1.479-2.415 2.415-.701.856-1.246 1.713-1.947 2.569-.078.156-.233.156-.233.156-1.636.311-3.35.467-4.829 1.557-.311.155-.389.544-.234.856.232.232.623.31.856.077.934-.701 1.946-1.09 3.037-1.09l.077.078v.077c-1.714 2.337-2.103 2.881-3.349 4.283a16.032 16.032 0 0 1-1.947 2.025c-2.881 2.648-5.919 2.57-7.009.936-.701-.936-.623-2.027-.156-2.883.545-1.012 1.636-1.791 2.492-2.259.312-.234.39-.622.078-1.013-.234-.233-.701-.311-1.091-.233-1.168.234-2.57 1.09-3.349 2.181-.935 1.246-1.402 2.648-1.247 4.285.312 2.959 2.725 4.594 5.452 4.594 2.18 0 4.283-.7 6.779-3.502 2.336-2.336 4.439-5.842 6.386-9.034.078-.156.078-.234.39-.234zm5.682-2.962a.6.6 0 0 1 .779-.078c.234.155.078.624-.078 1.013-.234.39-.623.701-1.013.701-.155-.078-.233-.078-.233-.234a1.5 1.5 0 0 1 .545-1.402zm33.955 0c0-.078 0-.156-.234-.464h-2.492c-.234 0-.313.078-.391.233-.312.546-3.894 5.841-4.518 6.854-.076.155-.232.077-.232-.078-.077-.623-.545-1.323-1.401-1.636-.624-.311-1.247-.311-1.869-.233-1.168.155-2.181.779-3.114 1.48-1.324 1.091-2.494 2.415-4.051 3.426-.857.546-1.949 1.015-2.726.312-.701-.699-.623-2.103.467-3.192.156-.155.233 0 .233.077-.077.47 0 1.012.391 1.324.467.39 1.167.47 1.714.156.622-.312 1.091-1.012 1.167-1.714.156-1.091-.701-2.104-1.792-2.181-.933-.078-1.713.234-2.567.935-.391.312-.625.545-1.015 1.091-.077.077-.233.077-.233-.079.078-1.403-.545-2.259-1.713-2.259-.856 0-1.869.468-2.648 1.092-.777.7-1.558 1.557-2.335 2.414-.155.156-.233.156-.233-.078 0-1.013-.234-1.946-.701-2.57-.155-.232-.466-.31-.778-.155-.078.078-.545.313-.857.546-.155.078-.233.312-.155.545.468 1.479.312 3.038-.233 4.439-.545 1.324-1.557 2.413-2.804 2.804-.857.312-1.635.156-2.18-.546-.701-.934-.467-2.648.623-4.05.935-1.244 2.259-2.024 3.583-2.569.155-.079.233-.158.155-.313-.078-.155-.156-.467-.233-.623-.078-.312-.467-.39-.856-.312a8.105 8.105 0 0 0-2.727.935c-2.26 1.247-3.428 3.584-3.895 4.831-.234.623-.468 1.011-.701 1.324-.389.389-.779.855-1.635 1.558-.079.079-.156.155-.079.312.079.232.469.778.624.856.157.077.312 0 .39-.078.622-.39 1.323-1.011 1.635-1.401.156-.158.234-.078.312.155.311 1.09 1.09 2.022 2.258 2.414 2.025.701 4.206-.312 5.841-2.103 1.013-1.092 1.403-1.869 1.792-2.336.701-.858 2.024-2.728 3.582-3.895.625-.469 1.323-.78 1.635-.547.313.156.391.625-.076 1.402-1.635 2.959-3.971 6.387-4.438 7.242-.078.155 0 .233.155.233h2.414c.078 0 .156-.078.232-.156 1.246-1.946 2.414-3.815 3.66-5.685.078-.156.156-.078.156 0 0 .467.157 1.09.391 1.479.467.779 1.09 1.09 1.868 1.09.624 0 .935-.078 1.56-.311a5.922 5.922 0 0 0 1.244-.701c.234-.078.234.157.234.157-.313 1.557 0 3.349 1.557 4.126 1.793.936 3.815-.313 4.984-1.479.078-.078.234-.078.234.155 0 .468.156.933.546 1.322 1.01.935 2.958.545 4.905-.935a24.974 24.974 0 0 0 3.738-3.814c.077-.078.077-.156 0-.234-.156-.156-.469-.39-.625-.546-.076-.077-.154-.077-.232 0-1.247 1.168-2.336 2.492-3.895 3.583-.546.389-1.402.7-1.791.155-.156-.231-.156-.466 0-.856.466-1.091 7.786-12.304 8.175-12.928zm-9.5 9.578s.078.078 0 .155c-.313.701-.623 1.092-1.013 1.638a6.706 6.706 0 0 1-1.245 1.321c-.701.625-1.793 1.248-2.647.857-.392-.232-.546-.701-.546-1.169 0-1.168.546-2.414 1.558-3.659 1.168-1.479 2.569-2.259 3.429-1.791.932.392.698 1.48.231 2.26v.154c-.001.079.154.157.233.234zM59.5 27.366c-26.402 0-47.897 7.71-47.897 17.134 0 9.501 21.418 17.134 47.897 17.134s47.975-7.633 47.896-17.134c0-9.501-21.417-17.134-47.896-17.134zm0 32.864c-25.546 0-46.262-7.086-46.262-15.653 0-8.644 20.717-15.732 46.262-15.732s46.264 7.01 46.264 15.655S85.045 60.23 59.5 60.23zM-.5-.5v90h120v-90H-.5zm60 63.77c-27.571 0-50-8.412-50-18.77 0-10.437 22.274-18.77 50-18.77 27.57 0 50.078 8.489 50 18.77 0 10.359-22.43 18.77-50 18.77z"/>
</symbol>
<symbol id="honda-inv" viewBox="0 0 120 90">
<path d="M85.706 13.939c-4.245-.771-8.685-1.158-12.93-1.352-3.666-.386-9.65-.386-13.123-.386-3.474 0-9.455.193-13.122.386-4.244.193-8.683.58-12.929 1.352-7.721 1.35-11.193 4.824-12.352 12.158-.579 6.367-.579 12.929-.193 19.296.386 6.368 1.158 12.543 2.701 18.72.772 2.894 2.123 5.402 4.246 7.527 2.895 2.314 6.176 3.666 9.842 3.858a204.209 204.209 0 0 0 43.419 0c3.476-.192 6.947-1.544 9.842-3.858 2.123-2.125 3.668-4.633 4.246-7.527 1.545-6.177 2.508-12.353 2.701-18.72.385-6.368.193-12.929-.191-19.296-.965-7.141-4.439-10.808-12.157-12.158zm-1.929 27.789c-.385 8.103-1.35 21.807-2.315 32.033 0 0-1.543.194-4.438.386-2.895.193-4.247.193-4.247.193-1.157-4.632-2.508-10.806-4.245-13.508-.966-1.543-2.702-2.508-4.632-2.508-1.543-.195-2.896-.195-4.246-.195-1.544 0-2.895 0-4.245.195-1.93 0-3.667.963-4.633 2.508-1.543 2.699-3.087 8.876-4.245 13.508 0 0-1.545 0-4.246-.193-2.701-.191-4.438-.386-4.438-.386-.771-10.42-1.735-23.93-2.315-32.033-.579-7.721-1.737-25.859-1.737-25.859.965-.193 1.931-.386 3.088-.386l2.896-.193c1.929 8.877 2.894 13.124 4.438 19.297 1.543 6.177 2.701 11.965 4.824 14.667 1.544 2.12 4.052 3.474 6.753 3.665 2.508.193 5.209.193 7.719 0 2.701-.191 5.211-1.543 6.756-3.665 2.119-2.896 3.087-8.298 4.822-14.667 1.738-6.367 2.509-10.421 4.438-19.297l2.896.193c1.158.192 2.121.192 3.088.386.001-.001-1.158 18.137-1.736 25.859zM-.5-.5v90h120v-90H-.5zm102.994 38.174c-.192 5.21-.579 10.42-1.158 15.629-.386 4.44-1.352 8.881-2.508 13.124-1.545 5.017-3.09 6.368-5.02 7.913-3.086 2.121-6.367 3.279-10.033 3.857a227.694 227.694 0 0 1-48.63 0c-3.666-.578-6.947-1.736-10.034-3.857-1.738-1.352-3.281-2.895-5.018-7.913-1.158-4.437-2.122-8.684-2.508-13.124a106.336 106.336 0 0 1-1.159-15.629c0-3.86 0-7.718.386-11.578 1.157-11.386 8.877-13.895 15.631-15.052a78.13 78.13 0 0 1 13.509-1.158c3.28-.192 11.385-.386 13.7-.386 2.317 0 10.227.193 13.703.386 4.436.193 8.875.579 13.313 1.158 6.754 1.157 14.474 3.474 15.632 15.052.194 3.86.387 7.718.194 11.578z"/>
</symbol>
<symbol id="hyundai-inv" viewBox="0 0 120 90">
<path d="M43.281 25.56c.226-.345.154-.629 0-.783-.214-.283-1.033-.283-2.075-.059-16.209 3.321-27.568 10.92-27.616 19.742 0 4.896 3.617 9.414 9.486 13.03.509.284.817.343 1.043.343.415-.023.663-.271.853-.593.131-.188.262-.497.416-.816 1.886-4.437 8.621-19.836 17.478-30.271.189-.25.32-.404.415-.593zm18.636 22.328c-4.328.924-8.454 2.502-11.773 3.758-9.378 3.641-14.43 7.268-16.066 8.654-.19.19-.343.321-.438.416-.261.248-.415.496-.415.818 0 .378.344.686 1.067.912 0 0 .167.059.225.095 7.198 2.205 15.782 3.462 25.019 3.462.059 0 .225.036.474 0 1.078-.034 2.324-.284 3.333-.758 3.283-1.637 4.73-5.773 5.548-7.695 4.991-11.561-4.411-10.151-6.974-9.662zm-4.692-6.867c4.328-.96 8.455-2.501 11.773-3.794 9.414-3.593 14.395-7.221 16.066-8.607.19-.167.344-.321.438-.416.227-.249.416-.475.416-.818 0-.379-.345-.687-1.008-.913a.895.895 0 0 0-.285-.095c-7.186-2.169-15.781-3.462-24.981-3.462h-.499c-1.079.035-2.325.261-3.332.759-3.284 1.636-4.731 5.774-5.549 7.695-4.991 11.584 4.399 10.16 6.961 9.651zM-.5-.5v90h120v-90H-.5zm60 70.651c-27.615 0-50-11.5-50-25.656 0-14.157 22.385-25.646 50-25.646 27.628 0 50 11.501 50 25.658 0 14.158-22.372 25.644-50 25.644zm36.566-38.686c-.476-.31-.76-.38-1.008-.344-.438 0-.699.272-.854.593-.143.189-.286.475-.404.842-1.886 4.47-8.633 19.87-17.478 30.307-.212.224-.343.379-.438.568-.226.344-.154.594 0 .782.25.284.938.284 1.98.06 16.22-3.332 27.578-10.92 27.578-19.777.001-4.898-3.506-9.415-9.376-13.031z"/>
</symbol>
<symbol id="mazda-inv" viewBox="0 0 120 90">
<path d="M59.44 48.309c6.853-14.767 18.313-15.002 28.414-20.97a6.18 6.18 0 0 0-.354-.65C81.593 17.888 70.723 15.82 59.441 15.82s-22.329 2.186-28.177 11.165c-.178.414-.414.768-.592 1.122 9.924 5.73 21.266 5.848 28.768 20.202zm32.076-10.926c-5.73 2.008-11.343 4.075-17.072 6.084-6.674 2.717-10.987 7.147-15.004 15.891C55.424 50.615 50.993 46.716 44.377 44c-5.67-1.891-11.223-3.781-16.835-5.789-.058.354-.177.708-.236 1.063-.295 1.535-.295 3.367-.295 5.139 0 24.041 15.655 28.886 32.431 28.768 16.777.176 32.667-4.727 32.604-28.767 0-2.363-.117-4.667-.413-6.616-.059-.12-.059-.297-.117-.415zM-.5-.5v90h120v-90H-.5zm59.941 80C40.774 79.5 16.2 74.656 16.2 44.412c0-9.807 2.658-17.073 6.911-22.212.119-.177.295-.354.414-.531C32.268 11.567 47.154 9.5 59.441 9.5c12.168 0 26.641 2.067 35.502 11.578.295.354.707.768 1.004 1.122 4.254 5.08 6.853 12.405 6.853 22.212 0 30.244-24.633 35.088-43.359 35.088z"/>
</symbol>
<symbol id="mercedes-inv" viewBox="0 0 120 90">
<path d="m59.5 50.275-16.275 6.649-10.413 4.288c2.625 4.199 6.125 7.699 10.413 10.237C47.95 74.338 53.55 76 59.5 76s11.463-1.662 16.275-4.55c4.199-2.538 7.875-6.038 10.5-10.325l-10.5-4.287L59.5 50.275zM-.5-.5v90h120v-90H-.5zm76.188 75.975C70.787 78.014 65.361 79.5 59.5 79.5c-5.862 0-11.375-1.486-16.187-3.938C32.112 69.7 24.5 57.975 24.5 44.5c0-13.475 7.612-25.2 18.725-31.062C48.125 10.9 53.638 9.5 59.5 9.5c5.861 0 11.375 1.4 16.275 3.938C86.889 19.3 94.5 31.025 94.5 44.5c0 13.475-7.611 25.2-18.812 30.975zm-21-33.863L58.626 13c-5.688.174-10.851 1.75-15.313 4.462C34.125 23.062 28 33.038 28 44.5c0 5.425 1.4 10.5 3.763 14.963l11.55-9.013 11.375-8.838zm21-24.15C71.225 14.75 65.975 13.175 60.462 13l4.024 28.7 11.289 8.75 11.461 9.013C89.688 55 91 49.925 91 44.5c0-11.462-6.125-21.525-15.312-27.038z"/>
</symbol>
<symbol id="mitsubishi-inv" viewBox="0 0 120 90">
<path d="M-.5-.5v90h120v-90H-.5zm71.01 73.958L59.174 53.675h-.434L46.878 73.637H24.5l11.816-19.962H58.74l.221-.371-11.277-19.68 11.368-18.261 11.816 17.903-11.907 20.038.213.371h23.152L94.5 73.368l-23.99.09z"/>
</symbol>
<symbol id="opel-inv" viewBox="0 0 120 90">
<path d="M43.557 51.513c0-.193.098-.363.245-.467l10.883-7.516-25.161-1.569a29.656 29.656 0 0 0-.111 2.539c0 16.431 13.633 30.058 30.07 30.058 13.825 0 25.663-9.638 29.077-22.475H44.127a.571.571 0 0 1-.57-.57zM59.483 14.44c-13.822 0-25.66 9.638-29.078 22.474h44.487a.571.571 0 0 1 .323 1.038l-10.907 7.471 25.137 1.598a29.24 29.24 0 0 0 .108-2.521c0-16.431-13.632-30.06-30.07-30.06zM-.5-.5v90h120v-90H-.5zm103.627 49.418-1.924 2.653a1.31 1.31 0 0 1-1.041.513h-6.493C90.202 67.769 76.212 79.5 59.481 79.5c-19.337 0-35.013-15.67-35.013-35 0-.959.041-1.908.117-2.847l-8.195-.511a.656.656 0 0 1-.519-1.059l1.922-2.654a1.315 1.315 0 0 1 1.042-.513h6.46C28.761 21.233 42.751 9.5 59.482 9.5c19.339 0 35.015 15.67 35.015 35 0 .953-.04 1.899-.115 2.834l8.229.522a.654.654 0 0 1 .516 1.062z"/>
</symbol>
<symbol id="seat-inv" viewBox="0 0 120 90">
<path d="M-.5-.5v90h120v-90H-.5zm94.046 64.308c-.087 2.269-.328 4.643-1.506 6.642-1.262 2.066-3.614 3.209-5.941 3.642-3.43.639-6.933.681-10.406.869-14.947.673-29.925.301-44.848-.718-1.192-.082-2.406-.104-3.563-.432-.6-.188-1.22-.49-1.559-1.04-.364-.721-.387-1.544-.477-2.33-.319-4.289-.489-8.587-.716-12.882 7.698.485 15.409.757 23.121.927 7.447.119 14.894.117 22.34.19 1.606.066 3.344-.237 4.562-1.356.178-.202.467-.39.438-.692-3.356-.5-6.693-1.12-10.043-1.667-13.478-2.285-26.962-4.549-40.438-6.847-.017-2.76.003-5.52-.008-8.28 22.611 4.136 45.213 8.342 67.82 12.503.494.119 1.023.129 1.498.309l.057.129c-.126 3.676-.197 7.356-.331 11.033zm.952-15.886c-7.343-1.207-14.673-2.509-22.011-3.755-15.788-2.702-31.57-5.441-47.362-8.117.031-2.729.148-5.458.206-8.189.1-2.162.038-4.354.53-6.478.331-1.499.944-3.005 2.088-4.076 1.974-1.94 4.829-2.486 7.486-2.76 4.188-.385 8.394-.512 12.595-.666 13.055-.457 26.122-.003 39.154.828 1.372.118 2.762.108 4.113.396.73.175 1.521.452 1.947 1.111.391.718.398 1.555.499 2.346.311 3.883.401 7.782.693 11.665-.564.068-1.128-.018-1.693-.036-10.051-.517-20.11-.946-30.178-.959-5.214.015-10.435-.036-15.644.215-1.263.185-2.692.604-3.421 1.722 3.941.695 7.875 1.445 11.815 2.153 13.058 2.427 26.126 4.8 39.184 7.223-.011 2.459-.006 4.918-.001 7.377z"/>
</symbol>
<symbol id="skoda-inv" viewBox="0 0 120 90">
<path d="M63.308 11.168c-11.46-1.403-23.379 3.683-30.428 12.984l-.678.894c-6.596 8.602-8.022 22.304-3.412 32.756 6.952 15.759 24.441 23.729 40.824 18.604 10.268-3.213 18.707-11.644 21.856-21.834 6.264-20.271-7.071-40.822-28.162-43.404zm24.386 47.701c-.479.955-2.291 3.907-2.507 4.086-.035.028-.274.336-.532.683-1.447 1.948-3.689 4.215-5.685 5.75a28.149 28.149 0 0 1-2.206 1.571c-17.696 11.473-41.45 2.761-47.523-17.431-5.876-19.538 8.162-39.502 28.595-40.668.376-.021 1.488-.018 2.471.008 23.264.601 37.872 25.136 27.387 46.001zM62.306 15.744c-14.631-1.38-28.305 8.677-31.019 22.815l-.267 1.381c-.592 3.021-.305 8.698.601 11.869C37.798 73.437 64.1 80.572 79.871 64.9c17.235-17.126 6.605-46.877-17.565-49.156zm19.361 43.255c-.217.863-3.472 2.968-5.691 3.68-2.729.876-3.102.807-3.102-.577 0-1.405 1.544-1.257-12.719-1.225l-12.255.027-1.42.836c-2.236 1.316-1.915 1.215-3.84 1.215-2.024 0-1.727.186-3.126-1.952a52.458 52.458 0 0 0-2.427-3.335c-1.764-2.198-1.822-2.336-1.235-2.924l.308-.307h8.001l1.87.879c3.451 1.622 3.612 1.678 4.152 1.427.653-.304.761-.87.451-2.358-1.395-6.7-6.339-10.95-14.611-12.557-2.066-.401-2.12-.544-1.359-3.637.568-2.309 2.141-6.08 2.65-6.352.768-.411 4.638.826 8.694 2.779 2.008.966 3.523 1.217 3.523.583 0-.539-6.594-5.288-9.121-6.569-.766-.388-.609-.728 1.14-2.472 2.373-2.366 5.18-4.259 5.964-4.023 1.398.422 5.867 3.575 8.567 6.045 1.425 1.304 2.226 1.753 3.125 1.753.552 0 .547-.018-.368-1.372-1.431-2.119-3.41-4.354-5.617-6.346-2.151-1.941-2.137-2.123.208-2.674 1.214-.286 2.812-.555 3.884-.654 1.625-.15 4.519-.057 4.942.159.521.267 3.789 3.547 4.732 4.749 5.914 7.539 7.369 17.269 4.351 29.097-.81 3.173-.812 3.198-.303 3.707.205.206.361.254.82.254.795 0 .953-.195 1.003-1.245.052-1.067.18-1.219.964-1.137 2.907.304 8.147 3.326 7.845 4.526zM65.513 47.721c-2.148-.993-4.521.539-4.521 2.919 0 2.985 3.551 4.36 5.566 2.154 1.488-1.628.97-4.142-1.045-5.073zM-.5-.5v90h120v-90H-.5zm44.351 76.286C22.928 65.318 17.975 37.78 33.914 20.543c.651-.705 1.32-1.396 1.486-1.536s.656-.571 1.09-.957c5.162-4.591 11.65-7.46 19.033-8.414 1.258-.162 2.031-.19 4.417-.157 16.825.232 31.215 12.284 34.028 28.5.419 2.415.476 3.049.526 5.889.473 26.29-27.127 43.684-50.643 31.918z"/>
</symbol>
<symbol id="subaru-inv" viewBox="0 0 120 90">
<path d="M93.226 24.933c-8.791-5.196-20.801-8.66-33.84-8.66-12.941 0-24.935 3.464-33.726 8.66-9.003 5.31-14.657 12.467-14.657 19.738 0 7.157 5.653 14.2 14.542 19.51 8.889 5.195 20.784 8.545 33.84 8.545s25.065-3.35 33.954-8.545c9.003-5.311 14.673-12.354 14.673-19.51.001-7.271-5.653-14.428-14.786-19.738zM83.52 30.93l1.961-4.853 2.189 4.853 9.592 1.961-9.592 1.977-1.961 5.311-2.189-5.311-8.774-1.977 8.774-1.961zm-3.35 16.405-9.592 2.189-1.961 5.082-2.189-5.311-8.774-1.961 8.774-1.961 1.961-4.853 2.189 4.853 9.592 1.962zm-64.314-8.546 20.555-4.396 4.608-11.781 4.853 11.209 22.516 4.967-22.287 4.608-4.853 12.255-4.837-12.484-20.555-4.378zm37.647 23.905-1.977 5.196-2.19-5.425-8.774-1.732 8.774-1.977 1.961-5.082 2.206 4.853 9.46 2.206-9.46 1.961zm25.393-1.731-2.189 5.195-2.189-5.195-8.546-1.961 8.546-1.978 2.189-4.837 1.961 4.608 9.82 2.206-9.592 1.962zm14.901-11.439-1.96 5.082-2.206-5.311-8.529-1.961 8.529-1.961 2.206-4.853 1.96 4.853 9.576 1.961-9.576 2.19zM-.5-.5v90h120v-90H-.5zm94.526 65.956c-9.004 5.311-21.356 8.774-34.641 8.774s-25.523-3.464-34.526-8.774C15.382 59.917 9.5 52.303 9.5 44.671c0-7.729 5.997-15.474 15.359-21.013 9.118-5.31 21.242-8.889 34.526-8.889s25.522 3.579 34.641 8.889c9.477 5.54 15.474 13.17 15.474 21.013 0 7.615-5.997 15.246-15.474 20.785z"/>
</symbol>
<symbol id="suzuki-inv" viewBox="0 0 120 90">
<path d="M-.5-.5v90h120v-90H-.5zm94.97 58.644s-6.522 1.893-19.172 9.665c-11.354 6.979-15.805 11.669-15.805 11.669L24.5 55.294s14.721-10.824 27.026-2.536l16.501 11.318 2.013-1.324L24.5 30.864s6.545-1.893 19.194-9.665C55.057 14.212 59.493 9.522 59.493 9.522L94.5 33.706s-14.721 10.831-27.026 2.536L50.973 24.917l-2.012 1.324L94.47 58.144z"/>
</symbol>
<symbol id="toyota-inv" viewBox="0 0 120 90">
<path d="M46.895 37.441c.755-8.238 2.782-15.314 5.51-19.831a80.02 80.02 0 0 0-6.745.811c-4.423.867-8.569 2.101-12.292 3.686-3.207 1.641-5.087 3.613-5.087 5.732-.001 4.276 7.665 7.962 18.614 9.602zm-.277 4.534c-13.307-2.156-22.779-7.557-22.779-13.841 0-.221.018-.442.037-.664-6.211 4.682-9.934 10.597-9.934 17.029 0 13.601 16.642 24.935 38.316 27.018-3.428-5.841-5.677-15.684-5.677-26.815 0-.921 0-1.824.037-2.727zm44.103-14.136c0-2.119-1.881-4.073-5.086-5.732-3.724-1.585-7.87-2.838-12.294-3.686a80.931 80.931 0 0 0-6.745-.811c2.728 4.516 4.756 11.574 5.511 19.831 10.947-1.622 18.614-5.326 18.614-9.602zM59.5 38.344c2.985 0 5.86-.147 8.607-.405-.978-11.813-4.46-20.605-8.607-20.605-4.129 0-7.63 8.772-8.607 20.605 2.728.258 5.621.405 8.607.405zM-.5-.5v90h120v-90H-.5zm60 77.012c-27.534 0-50-14.375-50-32.012s22.466-32.013 50-32.013c27.535 0 50 14.376 50 32.013s-22.465 32.012-50 32.012zm35.625-49.023c.019.221.038.442.038.663 0 6.285-9.475 11.685-22.781 13.841.02.903.038 1.807.038 2.728 0 11.131-2.249 20.973-5.677 26.815 21.673-2.102 38.315-13.436 38.315-27.018.001-6.432-3.722-12.348-9.933-17.029zM68.364 42.527a85.83 85.83 0 0 1-8.864.461c-3.06 0-6.027-.166-8.865-.461-.018.719-.037 1.438-.037 2.175 0 13.933 3.41 25.489 7.795 27.166h2.212c4.368-1.677 7.777-13.232 7.796-27.166a75.248 75.248 0 0 0-.037-2.175z"/>
</symbol>
<symbol id="volkswagen-inv" viewBox="0 0 120 90">
<path d="M59.5 13.542c-17.056 0-30.958 13.903-30.958 30.958S42.444 75.458 59.5 75.458c17.042 0 30.958-13.902 30.958-30.958S76.556 13.542 59.5 13.542zm0 5.267c2.506 0 4.944.364 7.234 1.038L59.5 37.266l-7.234-17.419a25.57 25.57 0 0 1 7.234-1.038zM33.809 44.5c0-2.694.417-5.294 1.199-7.747l14.469 31.403c-9.201-3.92-15.668-13.053-15.668-23.656zm25.677 25.69c-2.479 0-4.863-.35-7.126-1.01l7.126-16.638 7.141 16.638a25.445 25.445 0 0 1-7.141 1.01zm3.813-23.777h-7.598L51.39 56.8 38.592 29.6a25.859 25.859 0 0 1 7.962-7.275l8.972 20.949h7.949l8.972-20.949a26.021 26.021 0 0 1 7.962 7.275L67.61 56.8l-4.311-10.387zM85.19 44.5c0 10.603-6.479 19.736-15.667 23.644l14.469-31.376A25.31 25.31 0 0 1 85.19 44.5zM-.5-.5v90h120v-90H-.5zm60 80c-19.278 0-35-15.722-35-35s15.722-35 35-35c19.265 0 34.986 15.722 35 35 0 19.278-15.722 35-35 35z"/>
</symbol>
<symbol id="arrow" viewBox="0 0 32 32">
<path d="M19.414 27.414l10-10c0.781-0.781 0.781-2.047 0-2.828l-10-10c-0.781-0.781-2.047-0.781-2.828 0s-0.781 2.047 0 2.828l6.586 6.586h-19.172c-1.105 0-2 0.895-2 2s0.895 2 2 2h19.172l-6.586 6.586c-0.39 0.39-0.586 0.902-0.586 1.414s0.195 1.024 0.586 1.414c0.781 0.781 2.047 0.781 2.828 0z"></path>
</symbol>
<symbol id="spinner" viewBox="0 0 32 32">
<path d="M16 9.472a1.865 1.865 0 0 1-1.865-1.865V2.011a1.865 1.865 0 0 1 3.73 0v5.596c0 1.03-.835 1.865-1.865 1.865zM16 31.155a1.166 1.166 0 0 1-1.166-1.166v-5.596a1.166 1.166 0 1 1 2.332 0v5.596c0 .644-.522 1.166-1.166 1.166zM11.805 10.48a1.749 1.749 0 0 1-1.516-.875L7.491 4.759A1.75 1.75 0 0 1 10.52 3.01l2.798 4.846a1.75 1.75 0 0 1-1.513 2.624zM22.995 29.164a1.05 1.05 0 0 1-.91-.525l-2.798-4.846a1.049 1.049 0 1 1 1.817-1.049l2.798 4.846a1.049 1.049 0 0 1-.908 1.574zM8.729 13.436c-.277 0-.557-.07-.814-.219l-4.846-2.798a1.631 1.631 0 1 1 1.632-2.826l4.846 2.798a1.631 1.631 0 0 1-.818 3.045zM28.114 23.927a.923.923 0 0 1-.465-.125l-4.846-2.798a.932.932 0 1 1 .933-1.615l4.846 2.798a.932.932 0 0 1-.468 1.74zM7.607 17.515H2.011a1.515 1.515 0 1 1 0-3.03h5.596a1.515 1.515 0 1 1 0 3.03zM29.989 16.933h-5.596a.933.933 0 0 1 0-1.866h5.596a.933.933 0 0 1 0 1.866zM3.886 24.394a1.399 1.399 0 0 1-.701-2.611l4.846-2.798a1.398 1.398 0 1 1 1.399 2.423l-4.846 2.798c-.22.127-.461.188-.698.188zM23.27 12.736a.934.934 0 0 1-.468-1.74l4.846-2.798a.933.933 0 0 1 .933 1.615l-4.846 2.798a.925.925 0 0 1-.465.125zM9.004 29.397a1.283 1.283 0 0 1-1.109-1.924l2.798-4.846a1.283 1.283 0 0 1 2.221 1.283l-2.798 4.846a1.281 1.281 0 0 1-1.112.641zM20.196 9.664a.932.932 0 0 1-.806-1.399l2.798-4.846a.932.932 0 1 1 1.615.933l-2.798 4.846a.932.932 0 0 1-.809.466z"/>
</symbol>
<symbol id="play" viewBox="0 0 32 32">
<path d="m6 4 20 12L6 28z"/>
</symbol>
<symbol id="forward" viewBox="0 0 32 32">
<path d="M16 27V17L6 27V5l10 10V5l11 11z"/>
</symbol>
<symbol id="last" viewBox="0 0 32 32">
<path d="M28 4v24h-4V17L14 27V17L4 27V5l10 10V5l10 10V4z"/>
</symbol>
</defs>
</svg>
