<svg aria-hidden="true" style="position: absolute; width: 0; height: 0; overflow: hidden;" version="1.1" xmlns="http://www.w3.org/2000/svg" xmlns:xlink="http://www.w3.org/1999/xlink">
<defs>
<symbol id="icon-menu" viewBox="0 0 48 32">
<path d="M0 5.334v-5.334h48v5.334h-48zM0 18.666h48v-5.332h-48v5.332zM0 32h48v-5.334h-48v5.334z"></path>
</symbol>
<symbol id="menu-close" viewBox="0 0 40 40">
<path d="M29.667 12.88 27.787 11l-7.454 7.453L12.88 11 11 12.88l7.453 7.453L11 27.787l1.88 1.88 7.453-7.454 7.454 7.454 1.88-1.88-7.454-7.454 7.454-7.453Z"/>
</symbol>
<symbol id="icon-instagram" viewBox="0 0 20 20">
<g clip-path="url(#a)"><path d="M19.98 5.88c-.046-1.063-.218-1.793-.464-2.426a4.88 4.88 0 0 0-1.157-1.774 4.922 4.922 0 0 0-1.77-1.153C15.952.281 15.226.11 14.163.063 13.093.012 12.753 0 10.037 0 7.322 0 6.982.012 5.915.059 4.853.105 4.122.277 3.49.523A4.88 4.88 0 0 0 1.715 1.68 4.924 4.924 0 0 0 .563 3.45C.316 4.087.145 4.813.098 5.876c-.051 1.07-.063 1.41-.063 4.126 0 2.715.012 3.055.059 4.122.047 1.063.219 1.793.465 2.426a4.932 4.932 0 0 0 1.156 1.774c.5.508 1.106.902 1.77 1.152.637.247 1.364.419 2.426.465 1.067.047 1.407.059 4.122.059 2.716 0 3.056-.012 4.122-.059 1.063-.046 1.793-.218 2.426-.464a5.116 5.116 0 0 0 2.927-2.927c.246-.637.418-1.364.465-2.426.047-1.067.058-1.407.058-4.122s-.004-3.055-.05-4.122Zm-1.8 8.166c-.044.977-.208 1.504-.344 1.856a3.318 3.318 0 0 1-1.9 1.898c-.35.137-.882.301-1.855.344-1.055.047-1.371.059-4.04.059-2.668 0-2.989-.012-4.04-.059-.977-.043-1.504-.207-1.856-.344a3.077 3.077 0 0 1-1.148-.746 3.11 3.11 0 0 1-.747-1.148c-.136-.352-.3-.883-.343-1.856-.047-1.055-.059-1.372-.059-4.04 0-2.669.012-2.99.059-4.04.043-.977.207-1.504.343-1.856A3.04 3.04 0 0 1 3 2.965a3.105 3.105 0 0 1 1.15-.746c.35-.137.882-.3 1.855-.344 1.055-.046 1.372-.058 4.04-.058 2.672 0 2.989.012 4.04.058.977.043 1.504.207 1.856.344.433.16.828.414 1.148.746.332.325.586.715.747 1.15.136.35.3.882.343 1.855.047 1.055.059 1.371.059 4.04 0 2.668-.012 2.98-.059 4.036Z"/><path d="M10.037 4.864A5.139 5.139 0 0 0 4.9 10.002a5.139 5.139 0 1 0 5.138-5.138Zm0 8.47a3.333 3.333 0 1 1 .001-6.666 3.333 3.333 0 0 1 0 6.667ZM16.578 4.661a1.2 1.2 0 1 1-2.4 0 1.2 1.2 0 0 1 2.4 0Z"/></g>
</symbol>
<symbol id="icon-twitter" viewBox="0 0 20 20">
<path d="M0 .542h5.915l5.468 7.354L18.189.374l1.617.028-7.616 8.552L20 19.459h-5.913l-5.161-6.854-6.303 7.021H1.031l7.113-8.023L0 .542zm5.357 1.086H2.233l12.499 16.716h3.067L5.357 1.628z"/>
</symbol>
<symbol id="icon-facebook" viewBox="0 0 20 20">
<path d="M13.331 3.32h1.826V.14a23.576 23.576 0 0 0-2.66-.14C9.865 0 8.061 1.656 8.061 4.7v2.8H5.156v3.555h2.905V20h3.562v-8.944h2.787l.443-3.555h-3.23V5.05c0-1.027.277-1.73 1.708-1.73Z"/>
</symbol>
<symbol id="icon-linkedin" viewBox="0 0 20 20">
<g clip-path="url(#a)"><path d="M19.995 20H20v-7.336c0-3.588-.772-6.352-4.967-6.352-2.017 0-3.37 1.106-3.923 2.156h-.058V6.647H7.074v13.352h4.142v-6.611c0-1.741.33-3.425 2.486-3.425 2.124 0 2.156 1.987 2.156 3.536V20h4.137ZM.33 6.647h4.147V20H.33V6.647ZM2.402 0A2.402 2.402 0 0 0 0 2.402c0 1.325 1.076 2.424 2.402 2.424 1.325 0 2.401-1.098 2.401-2.424A2.403 2.403 0 0 0 2.402 0Z"/></g>
</symbol>
<symbol id="map-pin" viewBox="0 0 24 24">
<path d="M11.737 21.425c-.013-.056-8.152-4.878-8.239-11.061C3.506 5.987 7.335 2.508 12 2.5c4.662.008 8.492 3.487 8.499 7.864-.085 6.183-8.227 11.005-8.239 11.061a.493.493 0 0 1-.523 0zM4.5 10.364c-.014 2.618 1.881 5.205 3.847 7.106a26.19 26.19 0 0 0 3.65 2.934 26.082 26.082 0 0 0 3.654-2.934c1.966-1.901 3.861-4.488 3.847-7.106C19.492 6.606 16.172 3.502 12 3.5c-4.173.002-7.493 3.106-7.5 6.864z"/><path d="M8.499 11a3.5 3.5 0 1 1 7 0 3.5 3.5 0 0 1-3.5 3.499V13.5a2.503 2.503 0 0 0 2.499-2.5 2.5 2.5 0 0 0-2.499-2.499A2.5 2.5 0 0 0 9.5 11a2.502 2.502 0 0 0 2.499 2.499V14.5a3.502 3.502 0 0 1-3.5-3.5z"/>
</symbol>
<symbol id="phone" viewBox="0 0 24 24">
<path d="M18.389 20.528c-.068 0-.124-.002-.198-.008a16.385 16.385 0 0 1-7.157-2.544 16.22 16.22 0 0 1-4.979-4.978 16.429 16.429 0 0 1-2.547-7.201 2.082 2.082 0 0 1 .543-1.61A2.107 2.107 0 0 1 5.607 3.5l2.364.002.064-.004a2.118 2.118 0 0 1 2.091 1.821c.097.735.276 1.457.535 2.151.09.241.134.492.134.741 0 .545-.214 1.079-.611 1.486l-.748.748a12.36 12.36 0 0 0 4.121 4.118l.749-.75a2.107 2.107 0 0 1 1.481-.609c.245 0 .498.043.743.136a9.858 9.858 0 0 0 2.154.535 2.11 2.11 0 0 1 1.813 2.089h-.175l.173-.022-.495.061h.498V18.421c0 .591-.249 1.152-.684 1.556a2.11 2.11 0 0 1-1.418.552l-.007-.001zM4.788 4.862a1.114 1.114 0 0 0-.29.747c0 .027.002.062.006.092a15.408 15.408 0 0 0 2.394 6.758 15.189 15.189 0 0 0 4.678 4.675 15.4 15.4 0 0 0 6.692 2.39c.052.002.093.006.122.006.277-.002.545-.104.749-.29a1.12 1.12 0 0 0 .359-.819l.003-.006v-2.379c-.004-.052-.001-.074-.003-.074 0-.552-.403-1.021-.948-1.099a10.637 10.637 0 0 1-2.371-.591 1.105 1.105 0 0 0-1.167.247l-1.021 1.022a.506.506 0 0 1-.603.082 13.364 13.364 0 0 1-5.013-5.015.498.498 0 0 1 .081-.601L9.475 8.99c.207-.212.319-.496.319-.78 0-.132-.022-.263-.07-.391a10.915 10.915 0 0 1-.591-2.364 1.111 1.111 0 0 0-1.099-.957v-.35l-.013.352H5.607a1.11 1.11 0 0 0-.819.362z"/>
</symbol>
<symbol id="mail" viewBox="0 0 24 24">
<path d="M4.8 19.499c-1.258 0-2.297-.998-2.299-2.25L2.499 6.751c.003-1.254 1.043-2.25 2.301-2.252v1c-.723.002-1.299.577-1.301 1.252v10.498c.002.673.578 1.247 1.301 1.25h14.4c.721-.003 1.297-.577 1.299-1.25V6.751c-.002-.673-.578-1.25-1.299-1.251H4.8v-1h14.4c1.256.002 2.295.998 2.299 2.252V17.25c-.004 1.252-1.043 2.25-2.299 2.25H4.8v-.001z"/><path d="m11.7 13.399-8.001-6a.5.5 0 0 1-.099-.7.502.502 0 0 1 .7-.101l7.699 5.774L19.7 6.598V6.6a.5.5 0 1 1 .6.799l-8 6a.496.496 0 0 1-.6 0z"/>
</symbol>
<symbol id="feedback-phone" viewBox="0 0 32 32">
<path d="M22 20c-2 2-2 4-4 4s-4-2-6-4-4-4-4-6 2-2 4-4-4-8-6-8-6 6-6 6c0 4 4.109 12.109 8 16s12 8 16 8c0 0 6-4 6-6s-6-8-8-6z"></path>
</symbol>
<symbol id="feedback-envelop" viewBox="0 0 32 32">
<path d="M29 4h-26c-1.65 0-3 1.35-3 3v20c0 1.65 1.35 3 3 3h26c1.65 0 3-1.35 3-3v-20c0-1.65-1.35-3-3-3zM12.461 17.199l-8.461 6.59v-15.676l8.461 9.086zM5.512 8h20.976l-10.488 7.875-10.488-7.875zM12.79 17.553l3.21 3.447 3.21-3.447 6.58 8.447h-19.579l6.58-8.447zM19.539 17.199l8.461-9.086v15.676l-8.461-6.59z"></path>
</symbol>
<symbol id="feedback-user" viewBox="0 0 32 32">
<path d="M18 22.082v-1.649c2.203-1.241 4-4.337 4-7.432 0-4.971 0-9-6-9s-6 4.029-6 9c0 3.096 1.797 6.191 4 7.432v1.649c-6.784 0.555-12 3.888-12 7.918h28c0-4.030-5.216-7.364-12-7.918z"></path>
</symbol>
<symbol id="feedback-checkmark" viewBox="0 0 32 32">
<path d="M27 4l-15 15-7-7-5 5 12 12 20-20z"></path>
</symbol>
<symbol id="alert-notification" viewBox="0 0 32 32">
<path d="M16 3c-3.472 0-6.737 1.352-9.192 3.808s-3.808 5.72-3.808 9.192c0 3.472 1.352 6.737 3.808 9.192s5.72 3.808 9.192 3.808c3.472 0 6.737-1.352 9.192-3.808s3.808-5.72 3.808-9.192c0-3.472-1.352-6.737-3.808-9.192s-5.72-3.808-9.192-3.808zM16 0v0c8.837 0 16 7.163 16 16s-7.163 16-16 16c-8.837 0-16-7.163-16-16s7.163-16 16-16zM14 22h4v4h-4zM14 6h4v12h-4z"></path>
</symbol>
<symbol id="alert-info" viewBox="0 0 32 32">
<path d="M14 9.5c0-0.825 0.675-1.5 1.5-1.5h1c0.825 0 1.5 0.675 1.5 1.5v1c0 0.825-0.675 1.5-1.5 1.5h-1c-0.825 0-1.5-0.675-1.5-1.5v-1z"></path>
<path d="M20 24h-8v-2h2v-6h-2v-2h6v8h2z"></path>
<path d="M16 0c-8.837 0-16 7.163-16 16s7.163 16 16 16 16-7.163 16-16-7.163-16-16-16zM16 29c-7.18 0-13-5.82-13-13s5.82-13 13-13 13 5.82 13 13-5.82 13-13 13z"></path>
</symbol>
<symbol id="alert-checkmark" viewBox="0 0 32 32">
<path d="M12.42 28.678l-12.433-12.238 6.168-6.071 6.265 6.167 13.426-13.214 6.168 6.071-19.594 19.285zM3.372 16.441l9.048 8.905 16.208-15.953-2.782-2.739-13.426 13.214-6.265-6.167-2.782 2.739z"></path>
</symbol>
</defs>
</svg>
