<svg aria-hidden="true" style="position: absolute; width: 0; height: 0; overflow: hidden;" version="1.1" xmlns="http://www.w3.org/2000/svg" xmlns:xlink="http://www.w3.org/1999/xlink">
<defs>
<symbol id="icon-menu" viewBox="0 0 48 32">
<path d="M0 5.334v-5.334h48v5.334h-48zM0 18.666h48v-5.332h-48v5.332zM0 32h48v-5.334h-48v5.334z"></path>
</symbol>
<symbol id="menu-close" viewBox="0 0 40 40">
<path d="M29.667 12.88 27.787 11l-7.454 7.453L12.88 11 11 12.88l7.453 7.453L11 27.787l1.88 1.88 7.453-7.454 7.454 7.454 1.88-1.88-7.454-7.454 7.454-7.453Z"/>
</symbol>
<symbol id="icon-instagram" viewBox="0 0 20 20">
<g clip-path="url(#a)"><path d="M19.98 5.88c-.046-1.063-.218-1.793-.464-2.426a4.88 4.88 0 0 0-1.157-1.774 4.922 4.922 0 0 0-1.77-1.153C15.952.281 15.226.11 14.163.063 13.093.012 12.753 0 10.037 0 7.322 0 6.982.012 5.915.059 4.853.105 4.122.277 3.49.523A4.88 4.88 0 0 0 1.715 1.68 4.924 4.924 0 0 0 .563 3.45C.316 4.087.145 4.813.098 5.876c-.051 1.07-.063 1.41-.063 4.126 0 2.715.012 3.055.059 4.122.047 1.063.219 1.793.465 2.426a4.932 4.932 0 0 0 1.156 1.774c.5.508 1.106.902 1.77 1.152.637.247 1.364.419 2.426.465 1.067.047 1.407.059 4.122.059 2.716 0 3.056-.012 4.122-.059 1.063-.046 1.793-.218 2.426-.464a5.116 5.116 0 0 0 2.927-2.927c.246-.637.418-1.364.465-2.426.047-1.067.058-1.407.058-4.122s-.004-3.055-.05-4.122Zm-1.8 8.166c-.044.977-.208 1.504-.344 1.856a3.318 3.318 0 0 1-1.9 1.898c-.35.137-.882.301-1.855.344-1.055.047-1.371.059-4.04.059-2.668 0-2.989-.012-4.04-.059-.977-.043-1.504-.207-1.856-.344a3.077 3.077 0 0 1-1.148-.746 3.11 3.11 0 0 1-.747-1.148c-.136-.352-.3-.883-.343-1.856-.047-1.055-.059-1.372-.059-4.04 0-2.669.012-2.99.059-4.04.043-.977.207-1.504.343-1.856A3.04 3.04 0 0 1 3 2.965a3.105 3.105 0 0 1 1.15-.746c.35-.137.882-.3 1.855-.344 1.055-.046 1.372-.058 4.04-.058 2.672 0 2.989.012 4.04.058.977.043 1.504.207 1.856.344.433.16.828.414 1.148.746.332.325.586.715.747 1.15.136.35.3.882.343 1.855.047 1.055.059 1.371.059 4.04 0 2.668-.012 2.98-.059 4.036Z"/><path d="M10.037 4.864A5.139 5.139 0 0 0 4.9 10.002a5.139 5.139 0 1 0 5.138-5.138Zm0 8.47a3.333 3.333 0 1 1 .001-6.666 3.333 3.333 0 0 1 0 6.667ZM16.578 4.661a1.2 1.2 0 1 1-2.4 0 1.2 1.2 0 0 1 2.4 0Z"/></g>
</symbol>
<symbol id="icon-twitter" viewBox="0 0 20 20">
<path d="M0 .542h5.915l5.468 7.354L18.189.374l1.617.028-7.616 8.552L20 19.459h-5.913l-5.161-6.854-6.303 7.021H1.031l7.113-8.023L0 .542zm5.357 1.086H2.233l12.499 16.716h3.067L5.357 1.628z"/>
</symbol>
<symbol id="icon-facebook" viewBox="0 0 20 20">
<path d="M13.331 3.32h1.826V.14a23.576 23.576 0 0 0-2.66-.14C9.865 0 8.061 1.656 8.061 4.7v2.8H5.156v3.555h2.905V20h3.562v-8.944h2.787l.443-3.555h-3.23V5.05c0-1.027.277-1.73 1.708-1.73Z"/>
</symbol>
<symbol id="icon-linkedin" viewBox="0 0 20 20">
<g clip-path="url(#a)"><path d="M19.995 20H20v-7.336c0-3.588-.772-6.352-4.967-6.352-2.017 0-3.37 1.106-3.923 2.156h-.058V6.647H7.074v13.352h4.142v-6.611c0-1.741.33-3.425 2.486-3.425 2.124 0 2.156 1.987 2.156 3.536V20h4.137ZM.33 6.647h4.147V20H.33V6.647ZM2.402 0A2.402 2.402 0 0 0 0 2.402c0 1.325 1.076 2.424 2.402 2.424 1.325 0 2.401-1.098 2.401-2.424A2.403 2.403 0 0 0 2.402 0Z"/></g>
</symbol>
<symbol id="map-pin" viewBox="0 0 24 24">
<path d="M11.737 21.425c-.013-.056-8.152-4.878-8.239-11.061C3.506 5.987 7.335 2.508 12 2.5c4.662.008 8.492 3.487 8.499 7.864-.085 6.183-8.227 11.005-8.239 11.061a.493.493 0 0 1-.523 0zM4.5 10.364c-.014 2.618 1.881 5.205 3.847 7.106a26.19 26.19 0 0 0 3.65 2.934 26.082 26.082 0 0 0 3.654-2.934c1.966-1.901 3.861-4.488 3.847-7.106C19.492 6.606 16.172 3.502 12 3.5c-4.173.002-7.493 3.106-7.5 6.864z"/><path d="M8.499 11a3.5 3.5 0 1 1 7 0 3.5 3.5 0 0 1-3.5 3.499V13.5a2.503 2.503 0 0 0 2.499-2.5 2.5 2.5 0 0 0-2.499-2.499A2.5 2.5 0 0 0 9.5 11a2.502 2.502 0 0 0 2.499 2.499V14.5a3.502 3.502 0 0 1-3.5-3.5z"/>
</symbol>
<symbol id="phone" viewBox="0 0 24 24">
<path d="M18.389 20.528c-.068 0-.124-.002-.198-.008a16.385 16.385 0 0 1-7.157-2.544 16.22 16.22 0 0 1-4.979-4.978 16.429 16.429 0 0 1-2.547-7.201 2.082 2.082 0 0 1 .543-1.61A2.107 2.107 0 0 1 5.607 3.5l2.364.002.064-.004a2.118 2.118 0 0 1 2.091 1.821c.097.735.276 1.457.535 2.151.09.241.134.492.134.741 0 .545-.214 1.079-.611 1.486l-.748.748a12.36 12.36 0 0 0 4.121 4.118l.749-.75a2.107 2.107 0 0 1 1.481-.609c.245 0 .498.043.743.136a9.858 9.858 0 0 0 2.154.535 2.11 2.11 0 0 1 1.813 2.089h-.175l.173-.022-.495.061h.498V18.421c0 .591-.249 1.152-.684 1.556a2.11 2.11 0 0 1-1.418.552l-.007-.001zM4.788 4.862a1.114 1.114 0 0 0-.29.747c0 .027.002.062.006.092a15.408 15.408 0 0 0 2.394 6.758 15.189 15.189 0 0 0 4.678 4.675 15.4 15.4 0 0 0 6.692 2.39c.052.002.093.006.122.006.277-.002.545-.104.749-.29a1.12 1.12 0 0 0 .359-.819l.003-.006v-2.379c-.004-.052-.001-.074-.003-.074 0-.552-.403-1.021-.948-1.099a10.637 10.637 0 0 1-2.371-.591 1.105 1.105 0 0 0-1.167.247l-1.021 1.022a.506.506 0 0 1-.603.082 13.364 13.364 0 0 1-5.013-5.015.498.498 0 0 1 .081-.601L9.475 8.99c.207-.212.319-.496.319-.78 0-.132-.022-.263-.07-.391a10.915 10.915 0 0 1-.591-2.364 1.111 1.111 0 0 0-1.099-.957v-.35l-.013.352H5.607a1.11 1.11 0 0 0-.819.362z"/>
</symbol>
<symbol id="mail" viewBox="0 0 24 24">
<path d="M4.8 19.499c-1.258 0-2.297-.998-2.299-2.25L2.499 6.751c.003-1.254 1.043-2.25 2.301-2.252v1c-.723.002-1.299.577-1.301 1.252v10.498c.002.673.578 1.247 1.301 1.25h14.4c.721-.003 1.297-.577 1.299-1.25V6.751c-.002-.673-.578-1.25-1.299-1.251H4.8v-1h14.4c1.256.002 2.295.998 2.299 2.252V17.25c-.004 1.252-1.043 2.25-2.299 2.25H4.8v-.001z"/><path d="m11.7 13.399-8.001-6a.5.5 0 0 1-.099-.7.502.502 0 0 1 .7-.101l7.699 5.774L19.7 6.598V6.6a.5.5 0 1 1 .6.799l-8 6a.496.496 0 0 1-.6 0z"/>
</symbol>
<symbol id="feedback-phone" viewBox="0 0 32 32">
<path d="M22 20c-2 2-2 4-4 4s-4-2-6-4-4-4-4-6 2-2 4-4-4-8-6-8-6 6-6 6c0 4 4.109 12.109 8 16s12 8 16 8c0 0 6-4 6-6s-6-8-8-6z"></path>
</symbol>
<symbol id="feedback-envelop" viewBox="0 0 32 32">
<path d="M29 4h-26c-1.65 0-3 1.35-3 3v20c0 1.65 1.35 3 3 3h26c1.65 0 3-1.35 3-3v-20c0-1.65-1.35-3-3-3zM12.461 17.199l-8.461 6.59v-15.676l8.461 9.086zM5.512 8h20.976l-10.488 7.875-10.488-7.875zM12.79 17.553l3.21 3.447 3.21-3.447 6.58 8.447h-19.579l6.58-8.447zM19.539 17.199l8.461-9.086v15.676l-8.461-6.59z"></path>
</symbol>
<symbol id="feedback-user" viewBox="0 0 32 32">
<path d="M18 22.082v-1.649c2.203-1.241 4-4.337 4-7.432 0-4.971 0-9-6-9s-6 4.029-6 9c0 3.096 1.797 6.191 4 7.432v1.649c-6.784 0.555-12 3.888-12 7.918h28c0-4.030-5.216-7.364-12-7.918z"></path>
</symbol>
<symbol id="feedback-checkmark" viewBox="0 0 32 32">
<path d="M27 4l-15 15-7-7-5 5 12 12 20-20z"></path>
</symbol>
<symbol id="alert-notification" viewBox="0 0 32 32">
<path d="M16 3c-3.472 0-6.737 1.352-9.192 3.808s-3.808 5.72-3.808 9.192c0 3.472 1.352 6.737 3.808 9.192s5.72 3.808 9.192 3.808c3.472 0 6.737-1.352 9.192-3.808s3.808-5.72 3.808-9.192c0-3.472-1.352-6.737-3.808-9.192s-5.72-3.808-9.192-3.808zM16 0v0c8.837 0 16 7.163 16 16s-7.163 16-16 16c-8.837 0-16-7.163-16-16s7.163-16 16-16zM14 22h4v4h-4zM14 6h4v12h-4z"></path>
</symbol>
<symbol id="alert-info" viewBox="0 0 32 32">
<path d="M14 9.5c0-0.825 0.675-1.5 1.5-1.5h1c0.825 0 1.5 0.675 1.5 1.5v1c0 0.825-0.675 1.5-1.5 1.5h-1c-0.825 0-1.5-0.675-1.5-1.5v-1z"></path>
<path d="M20 24h-8v-2h2v-6h-2v-2h6v8h2z"></path>
<path d="M16 0c-8.837 0-16 7.163-16 16s7.163 16 16 16 16-7.163 16-16-7.163-16-16-16zM16 29c-7.18 0-13-5.82-13-13s5.82-13 13-13 13 5.82 13 13-5.82 13-13 13z"></path>
</symbol>
<symbol id="alert-checkmark" viewBox="0 0 32 32">
<path d="M12.42 28.678l-12.433-12.238 6.168-6.071 6.265 6.167 13.426-13.214 6.168 6.071-19.594 19.285zM3.372 16.441l9.048 8.905 16.208-15.953-2.782-2.739-13.426 13.214-6.265-6.167-2.782 2.739z"></path>
</symbol>
<symbol id="audi-brand" viewBox="0 0 120 90">
<path d="M114.579 41.135a19.189 19.189 0 0 0-2.886-6.882 19.165 19.165 0 0 0-2.351-2.848 19.122 19.122 0 0 0-2.849-2.351 18.494 18.494 0 0 0-3.269-1.768 18.785 18.785 0 0 0-3.612-1.118 19.476 19.476 0 0 0-3.87-.392c-1.3 0-2.608.134-3.871.392a19.35 19.35 0 0 0-3.612 1.118 19.615 19.615 0 0 0-3.268 1.768c-.393.258-.765.544-1.139.832a23.862 23.862 0 0 0-1.137-.832 18.52 18.52 0 0 0-3.268-1.768 18.86 18.86 0 0 0-3.613-1.118 19.418 19.418 0 0 0-3.871-.392 19.304 19.304 0 0 0-7.482 1.51 19.703 19.703 0 0 0-3.269 1.768c-.411.277-.813.573-1.205.879a25.029 25.029 0 0 0-1.194-.879 18.53 18.53 0 0 0-3.269-1.768 18.85 18.85 0 0 0-3.612-1.118 19.418 19.418 0 0 0-3.871-.392 19.336 19.336 0 0 0-7.484 1.51 19.654 19.654 0 0 0-3.268 1.768c-.412.277-.804.564-1.185.87a20.837 20.837 0 0 0-1.186-.87 18.565 18.565 0 0 0-3.269-1.768 18.85 18.85 0 0 0-3.612-1.118 19.41 19.41 0 0 0-3.871-.392 19.29 19.29 0 0 0-7.483 1.51 19.654 19.654 0 0 0-3.268 1.768 19.114 19.114 0 0 0-2.848 2.351c-.87.87-1.663 1.826-2.352 2.848a21.611 21.611 0 0 0-1.729 3.269 18.816 18.816 0 0 0-1.118 3.613 19.418 19.418 0 0 0 .004 7.741 19.03 19.03 0 0 0 1.118 3.603 19.63 19.63 0 0 0 1.768 3.269 19.458 19.458 0 0 0 5.2 5.2 18.745 18.745 0 0 0 3.267 1.768c1.157.487 2.371.87 3.613 1.119a19.424 19.424 0 0 0 7.742 0 19.307 19.307 0 0 0 3.612-1.119 19.648 19.648 0 0 0 3.268-1.768c.402-.277.803-.563 1.186-.87a18.754 18.754 0 0 0 4.453 2.638c1.157.487 2.371.87 3.604 1.119a19.424 19.424 0 0 0 7.742 0 19.33 19.33 0 0 0 3.612-1.119 19.688 19.688 0 0 0 3.268-1.768c.412-.277.813-.574 1.204-.881.392.307.794.604 1.205.881a18.727 18.727 0 0 0 3.269 1.768c1.156.487 2.37.87 3.612 1.119a19.4 19.4 0 0 0 7.741 0 19.33 19.33 0 0 0 3.612-1.119 19.737 19.737 0 0 0 3.269-1.768c.392-.259.765-.546 1.138-.832.372.286.745.563 1.137.832a18.664 18.664 0 0 0 3.27 1.768c1.155.487 2.369.87 3.602 1.119a19.417 19.417 0 0 0 7.742 0 19.32 19.32 0 0 0 3.611-1.119 19.658 19.658 0 0 0 3.269-1.768 19.125 19.125 0 0 0 2.849-2.353 19.117 19.117 0 0 0 5.237-9.729 19.41 19.41 0 0 0 .393-3.87 22.11 22.11 0 0 0-.426-3.861zm-98.742-8.554a15.424 15.424 0 0 1 2.542-1.386 14.726 14.726 0 0 1 2.81-.87 15.175 15.175 0 0 1 3.02-.306c1.013 0 2.036.105 3.02.306.965.201 1.912.487 2.81.87.889.373 1.749.841 2.542 1.386.173.115.345.239.517.363-.344.42-.669.86-.965 1.309a18.66 18.66 0 0 0-1.768 3.269 19.328 19.328 0 0 0-1.51 7.483c0 1.3.133 2.609.392 3.871a19.03 19.03 0 0 0 1.118 3.603 19.703 19.703 0 0 0 1.768 3.269c.306.45.631.889.975 1.31-.172.123-.344.248-.526.372a14.655 14.655 0 0 1-5.352 2.256c-.984.2-2.007.306-3.02.306s-2.036-.105-3.02-.306a14.648 14.648 0 0 1-5.352-2.256 15.655 15.655 0 0 1-2.216-1.824 15.025 15.025 0 0 1-1.826-2.219 15.337 15.337 0 0 1-1.386-2.542 14.7 14.7 0 0 1-.869-2.81 15.174 15.174 0 0 1-.305-3.02 15.074 15.074 0 0 1 1.174-5.83c.374-.889.841-1.749 1.386-2.542a15.609 15.609 0 0 1 1.826-2.217 14.42 14.42 0 0 1 2.215-1.845zm19.821 20.805a15.337 15.337 0 0 1-1.386-2.542 15.102 15.102 0 0 1-1.175-5.83 15.102 15.102 0 0 1 1.175-5.83c.373-.889.841-1.749 1.386-2.542.153-.229.326-.458.498-.688.172.229.334.459.496.688a14.633 14.633 0 0 1 2.256 5.352c.201.984.306 2.007.306 3.02s-.105 2.035-.306 3.02a14.906 14.906 0 0 1-.87 2.81c-.373.89-.84 1.749-1.386 2.542-.152.229-.324.459-.496.689a9.163 9.163 0 0 1-.498-.689zm4.501 2.371a18.538 18.538 0 0 0 1.769-3.27c.487-1.155.87-2.369 1.118-3.611.258-1.262.392-2.571.392-3.871s-.134-2.609-.392-3.87a19.262 19.262 0 0 0-1.118-3.613 19.635 19.635 0 0 0-1.769-3.269c-.305-.449-.63-.889-.974-1.309.172-.124.344-.249.516-.363a15.383 15.383 0 0 1 2.542-1.386 14.704 14.704 0 0 1 2.81-.87 15.175 15.175 0 0 1 3.02-.306c1.013 0 2.036.105 3.02.306.965.201 1.912.487 2.809.87.89.373 1.75.841 2.542 1.386.183.124.363.249.535.382a18.66 18.66 0 0 0-2.723 4.559 18.89 18.89 0 0 0-1.119 3.613 19.401 19.401 0 0 0-.392 3.87c0 1.3.134 2.609.392 3.871a19.106 19.106 0 0 0 1.119 3.603 19.703 19.703 0 0 0 1.768 3.269c.305.45.621.88.965 1.3a11.78 11.78 0 0 1-.545.382 15.191 15.191 0 0 1-2.542 1.386c-.908.383-1.853.679-2.809.87-.984.2-2.007.306-3.02.306s-2.036-.105-3.02-.306c-.966-.2-1.911-.487-2.81-.87a14.612 14.612 0 0 1-2.542-1.386 6.281 6.281 0 0 1-.516-.372c.344-.413.669-.852.974-1.301zm19.392-2.371a15.264 15.264 0 0 1-1.386-2.542 14.704 14.704 0 0 1-.87-2.81 15.175 15.175 0 0 1-.306-3.02 15.003 15.003 0 0 1 1.176-5.83 14.16 14.16 0 0 1 1.386-2.542c.153-.229.315-.449.478-.669.162.22.325.44.478.669a15.343 15.343 0 0 1 1.386 2.542c.382.908.679 1.854.869 2.81a15.109 15.109 0 0 1-.869 8.85c-.373.89-.842 1.749-1.386 2.542-.153.229-.316.449-.478.67a17.66 17.66 0 0 1-.478-.67zm4.472 2.371a18.669 18.669 0 0 0 1.769-3.27 18.868 18.868 0 0 0 1.118-3.611 19.4 19.4 0 0 0 0-7.741 19.336 19.336 0 0 0-1.118-3.613 19.783 19.783 0 0 0-1.769-3.269 17.851 17.851 0 0 0-.956-1.299c.172-.134.354-.258.536-.382a15.27 15.27 0 0 1 2.542-1.386 14.695 14.695 0 0 1 2.809-.87 15.193 15.193 0 0 1 3.021-.306c1.014 0 2.036.105 3.021.306.965.201 1.911.487 2.81.87.889.373 1.749.841 2.542 1.386.153.104.306.21.449.315-.354.439-.688.889-1.003 1.357a18.693 18.693 0 0 0-1.769 3.268 18.872 18.872 0 0 0-1.118 3.612 19.418 19.418 0 0 0-.392 3.871c0 1.298.134 2.609.392 3.87a18.972 18.972 0 0 0 1.118 3.604 19.65 19.65 0 0 0 1.769 3.267c.314.47.649.919 1.013 1.357a14.4 14.4 0 0 1-.459.326 15.417 15.417 0 0 1-2.542 1.386c-.908.381-1.854.679-2.81.87-.984.2-2.007.304-3.021.304-1.013 0-2.035-.104-3.021-.304a14.642 14.642 0 0 1-5.351-2.256c-.182-.126-.364-.249-.536-.384.335-.399.651-.838.956-1.278zm19.295-2.371a14.63 14.63 0 0 1-2.255-5.352 15.25 15.25 0 0 1-.306-3.02c0-1.013.105-2.036.306-3.02.2-.965.487-1.912.869-2.81a14.35 14.35 0 0 1 1.386-2.542c.172-.258.354-.506.545-.755a15.27 15.27 0 0 1 1.931 3.297c.382.908.679 1.854.87 2.81.2.984.305 2.007.305 3.02s-.104 2.035-.305 3.02a14.98 14.98 0 0 1-.87 2.81c-.372.89-.841 1.749-1.386 2.542-.172.258-.354.507-.545.756a14.007 14.007 0 0 1-.545-.756zm4.597 2.371a18.538 18.538 0 0 0 1.769-3.27 18.87 18.87 0 0 0 1.119-3.611 19.4 19.4 0 0 0 0-7.741 19.34 19.34 0 0 0-1.119-3.613 19.635 19.635 0 0 0-1.769-3.269 19.455 19.455 0 0 0-1.003-1.357c.152-.105.306-.22.459-.324a15.27 15.27 0 0 1 2.542-1.386 14.691 14.691 0 0 1 2.811-.87 15.16 15.16 0 0 1 3.02-.306 15.2 15.2 0 0 1 3.021.306 14.92 14.92 0 0 1 2.809.87c.889.373 1.749.841 2.542 1.386a15.082 15.082 0 0 1 4.043 4.051 15.237 15.237 0 0 1 1.386 2.542c.382.908.679 1.854.87 2.81.2.984.306 2.007.306 3.02a15.068 15.068 0 0 1-1.176 5.831 14.195 14.195 0 0 1-1.386 2.542 15.658 15.658 0 0 1-1.825 2.217 14.456 14.456 0 0 1-2.218 1.824 15.28 15.28 0 0 1-2.542 1.388 14.71 14.71 0 0 1-2.809.868c-.985.2-2.008.306-3.021.306a15.081 15.081 0 0 1-5.831-1.174 14.652 14.652 0 0 1-3.001-1.712c.354-.412.689-.859 1.003-1.328z"/>
</symbol>
<symbol id="bmw-brand" viewBox="0 0 120 90">
<path d="M60 5C37.908 5 20 22.908 20 45s17.908 40 40 40 40-17.908 40-40S82.092 5 60 5zm0 77.389c-20.653 0-37.389-16.736-37.389-37.389C22.611 24.347 39.347 7.611 60 7.611c20.652 0 37.389 16.736 37.389 37.389 0 20.652-16.737 37.389-37.389 37.389zM43.098 25.588c1.271-1.339 2.008-2.912.736-4.385-.703-.803-1.875-.971-2.845-.569l-.101.033.034-.1c.134-.368.234-1.607-.804-2.444a2.419 2.419 0 0 0-1.774-.502c-1.205.134-2.109.937-4.653 3.749a53.222 53.222 0 0 0-2.544 3.046l6.929 6.561c2.311-2.543 3.215-3.48 5.022-5.389zm-9.004-1.606c1.406-1.707 2.878-3.247 3.548-3.85.201-.201.436-.401.737-.468.468-.134.937.201 1.038.669.1.468-.201.904-.502 1.272-.77.837-3.481 3.682-3.481 3.682l-1.34-1.305zm6.192-1.105c.335-.368.569-.569.803-.669.301-.134.636-.167.938.033a.835.835 0 0 1 .368.871c-.101.401-.402.77-.669 1.071-.368.402-3.481 3.716-3.481 3.716l-1.439-1.339c-.001 0 2.643-2.779 3.48-3.683zm16.402-10.008-.034-.469.134.435 2.209 4.954h2.008l2.209-4.954.134-.435-.033.469.234 6.627c.77.067 1.573.167 2.377.301l-.367-9.807c-1.105-.134-2.21-.201-3.314-.268l-2.175 5.422-.067.402-.067-.402-2.176-5.422a36.6 36.6 0 0 0-3.313.268l-.368 9.808a30.686 30.686 0 0 1 2.376-.301l.233-6.628zm31.029 10.209-5.121 3.381-.335.301.269-.368 2.275-4.519-1.606-1.606-4.519 2.276-.368.268.301-.335 3.381-5.121a63.708 63.708 0 0 0-1.908-1.54l-5.154 8.101a36.563 36.563 0 0 1 2.042 1.741l4.854-2.511.301-.234-.234.301-2.51 4.82c.535.569 1.339 1.54 1.773 2.109l8.101-5.155a36.153 36.153 0 0 0-1.542-1.909zM36.301 45H60V21.301c-13.122 0-23.699 10.577-23.699 23.699zM60 68.699c13.088 0 23.699-10.578 23.699-23.699H60v23.699z"/>
</symbol>
</defs>
</svg>
