<svg aria-hidden="true" style="position: absolute; width: 0; height: 0; overflow: hidden;" version="1.1" xmlns="http://www.w3.org/2000/svg" xmlns:xlink="http://www.w3.org/1999/xlink">
<defs>
<symbol id="icon-menu" viewBox="0 0 48 32">
<path d="M0 5.334v-5.334h48v5.334h-48zM0 18.666h48v-5.332h-48v5.332zM0 32h48v-5.334h-48v5.334z"></path>
</symbol>
<symbol id="menu-close" viewBox="0 0 40 40">
<path d="M29.667 12.88 27.787 11l-7.454 7.453L12.88 11 11 12.88l7.453 7.453L11 27.787l1.88 1.88 7.453-7.454 7.454 7.454 1.88-1.88-7.454-7.454 7.454-7.453Z"/>
</symbol>
<symbol id="icon-instagram" viewBox="0 0 20 20">
<g clip-path="url(#a)"><path d="M19.98 5.88c-.046-1.063-.218-1.793-.464-2.426a4.88 4.88 0 0 0-1.157-1.774 4.922 4.922 0 0 0-1.77-1.153C15.952.281 15.226.11 14.163.063 13.093.012 12.753 0 10.037 0 7.322 0 6.982.012 5.915.059 4.853.105 4.122.277 3.49.523A4.88 4.88 0 0 0 1.715 1.68 4.924 4.924 0 0 0 .563 3.45C.316 4.087.145 4.813.098 5.876c-.051 1.07-.063 1.41-.063 4.126 0 2.715.012 3.055.059 4.122.047 1.063.219 1.793.465 2.426a4.932 4.932 0 0 0 1.156 1.774c.5.508 1.106.902 1.77 1.152.637.247 1.364.419 2.426.465 1.067.047 1.407.059 4.122.059 2.716 0 3.056-.012 4.122-.059 1.063-.046 1.793-.218 2.426-.464a5.116 5.116 0 0 0 2.927-2.927c.246-.637.418-1.364.465-2.426.047-1.067.058-1.407.058-4.122s-.004-3.055-.05-4.122Zm-1.8 8.166c-.044.977-.208 1.504-.344 1.856a3.318 3.318 0 0 1-1.9 1.898c-.35.137-.882.301-1.855.344-1.055.047-1.371.059-4.04.059-2.668 0-2.989-.012-4.04-.059-.977-.043-1.504-.207-1.856-.344a3.077 3.077 0 0 1-1.148-.746 3.11 3.11 0 0 1-.747-1.148c-.136-.352-.3-.883-.343-1.856-.047-1.055-.059-1.372-.059-4.04 0-2.669.012-2.99.059-4.04.043-.977.207-1.504.343-1.856A3.04 3.04 0 0 1 3 2.965a3.105 3.105 0 0 1 1.15-.746c.35-.137.882-.3 1.855-.344 1.055-.046 1.372-.058 4.04-.058 2.672 0 2.989.012 4.04.058.977.043 1.504.207 1.856.344.433.16.828.414 1.148.746.332.325.586.715.747 1.15.136.35.3.882.343 1.855.047 1.055.059 1.371.059 4.04 0 2.668-.012 2.98-.059 4.036Z"/><path d="M10.037 4.864A5.139 5.139 0 0 0 4.9 10.002a5.139 5.139 0 1 0 5.138-5.138Zm0 8.47a3.333 3.333 0 1 1 .001-6.666 3.333 3.333 0 0 1 0 6.667ZM16.578 4.661a1.2 1.2 0 1 1-2.4 0 1.2 1.2 0 0 1 2.4 0Z"/></g>
</symbol>
<symbol id="icon-twitter" viewBox="0 0 20 20">
<path d="M0 .542h5.915l5.468 7.354L18.189.374l1.617.028-7.616 8.552L20 19.459h-5.913l-5.161-6.854-6.303 7.021H1.031l7.113-8.023L0 .542zm5.357 1.086H2.233l12.499 16.716h3.067L5.357 1.628z"/>
</symbol>
<symbol id="icon-facebook" viewBox="0 0 20 20">
<path d="M13.331 3.32h1.826V.14a23.576 23.576 0 0 0-2.66-.14C9.865 0 8.061 1.656 8.061 4.7v2.8H5.156v3.555h2.905V20h3.562v-8.944h2.787l.443-3.555h-3.23V5.05c0-1.027.277-1.73 1.708-1.73Z"/>
</symbol>
<symbol id="icon-linkedin" viewBox="0 0 20 20">
<g clip-path="url(#a)"><path d="M19.995 20H20v-7.336c0-3.588-.772-6.352-4.967-6.352-2.017 0-3.37 1.106-3.923 2.156h-.058V6.647H7.074v13.352h4.142v-6.611c0-1.741.33-3.425 2.486-3.425 2.124 0 2.156 1.987 2.156 3.536V20h4.137ZM.33 6.647h4.147V20H.33V6.647ZM2.402 0A2.402 2.402 0 0 0 0 2.402c0 1.325 1.076 2.424 2.402 2.424 1.325 0 2.401-1.098 2.401-2.424A2.403 2.403 0 0 0 2.402 0Z"/></g>
</symbol>
<symbol id="map-pin" viewBox="0 0 24 24">
<path d="M11.737 21.425c-.013-.056-8.152-4.878-8.239-11.061C3.506 5.987 7.335 2.508 12 2.5c4.662.008 8.492 3.487 8.499 7.864-.085 6.183-8.227 11.005-8.239 11.061a.493.493 0 0 1-.523 0zM4.5 10.364c-.014 2.618 1.881 5.205 3.847 7.106a26.19 26.19 0 0 0 3.65 2.934 26.082 26.082 0 0 0 3.654-2.934c1.966-1.901 3.861-4.488 3.847-7.106C19.492 6.606 16.172 3.502 12 3.5c-4.173.002-7.493 3.106-7.5 6.864z"/><path d="M8.499 11a3.5 3.5 0 1 1 7 0 3.5 3.5 0 0 1-3.5 3.499V13.5a2.503 2.503 0 0 0 2.499-2.5 2.5 2.5 0 0 0-2.499-2.499A2.5 2.5 0 0 0 9.5 11a2.502 2.502 0 0 0 2.499 2.499V14.5a3.502 3.502 0 0 1-3.5-3.5z"/>
</symbol>
<symbol id="phone" viewBox="0 0 24 24">
<path d="M18.389 20.528c-.068 0-.124-.002-.198-.008a16.385 16.385 0 0 1-7.157-2.544 16.22 16.22 0 0 1-4.979-4.978 16.429 16.429 0 0 1-2.547-7.201 2.082 2.082 0 0 1 .543-1.61A2.107 2.107 0 0 1 5.607 3.5l2.364.002.064-.004a2.118 2.118 0 0 1 2.091 1.821c.097.735.276 1.457.535 2.151.09.241.134.492.134.741 0 .545-.214 1.079-.611 1.486l-.748.748a12.36 12.36 0 0 0 4.121 4.118l.749-.75a2.107 2.107 0 0 1 1.481-.609c.245 0 .498.043.743.136a9.858 9.858 0 0 0 2.154.535 2.11 2.11 0 0 1 1.813 2.089h-.175l.173-.022-.495.061h.498V18.421c0 .591-.249 1.152-.684 1.556a2.11 2.11 0 0 1-1.418.552l-.007-.001zM4.788 4.862a1.114 1.114 0 0 0-.29.747c0 .027.002.062.006.092a15.408 15.408 0 0 0 2.394 6.758 15.189 15.189 0 0 0 4.678 4.675 15.4 15.4 0 0 0 6.692 2.39c.052.002.093.006.122.006.277-.002.545-.104.749-.29a1.12 1.12 0 0 0 .359-.819l.003-.006v-2.379c-.004-.052-.001-.074-.003-.074 0-.552-.403-1.021-.948-1.099a10.637 10.637 0 0 1-2.371-.591 1.105 1.105 0 0 0-1.167.247l-1.021 1.022a.506.506 0 0 1-.603.082 13.364 13.364 0 0 1-5.013-5.015.498.498 0 0 1 .081-.601L9.475 8.99c.207-.212.319-.496.319-.78 0-.132-.022-.263-.07-.391a10.915 10.915 0 0 1-.591-2.364 1.111 1.111 0 0 0-1.099-.957v-.35l-.013.352H5.607a1.11 1.11 0 0 0-.819.362z"/>
</symbol>
<symbol id="mail" viewBox="0 0 24 24">
<path d="M4.8 19.499c-1.258 0-2.297-.998-2.299-2.25L2.499 6.751c.003-1.254 1.043-2.25 2.301-2.252v1c-.723.002-1.299.577-1.301 1.252v10.498c.002.673.578 1.247 1.301 1.25h14.4c.721-.003 1.297-.577 1.299-1.25V6.751c-.002-.673-.578-1.25-1.299-1.251H4.8v-1h14.4c1.256.002 2.295.998 2.299 2.252V17.25c-.004 1.252-1.043 2.25-2.299 2.25H4.8v-.001z"/><path d="m11.7 13.399-8.001-6a.5.5 0 0 1-.099-.7.502.502 0 0 1 .7-.101l7.699 5.774L19.7 6.598V6.6a.5.5 0 1 1 .6.799l-8 6a.496.496 0 0 1-.6 0z"/>
</symbol>
<symbol id="feedback-phone" viewBox="0 0 32 32">
<path d="M22 20c-2 2-2 4-4 4s-4-2-6-4-4-4-4-6 2-2 4-4-4-8-6-8-6 6-6 6c0 4 4.109 12.109 8 16s12 8 16 8c0 0 6-4 6-6s-6-8-8-6z"></path>
</symbol>
<symbol id="feedback-envelop" viewBox="0 0 32 32">
<path d="M29 4h-26c-1.65 0-3 1.35-3 3v20c0 1.65 1.35 3 3 3h26c1.65 0 3-1.35 3-3v-20c0-1.65-1.35-3-3-3zM12.461 17.199l-8.461 6.59v-15.676l8.461 9.086zM5.512 8h20.976l-10.488 7.875-10.488-7.875zM12.79 17.553l3.21 3.447 3.21-3.447 6.58 8.447h-19.579l6.58-8.447zM19.539 17.199l8.461-9.086v15.676l-8.461-6.59z"></path>
</symbol>
<symbol id="feedback-user" viewBox="0 0 32 32">
<path d="M18 22.082v-1.649c2.203-1.241 4-4.337 4-7.432 0-4.971 0-9-6-9s-6 4.029-6 9c0 3.096 1.797 6.191 4 7.432v1.649c-6.784 0.555-12 3.888-12 7.918h28c0-4.030-5.216-7.364-12-7.918z"></path>
</symbol>
<symbol id="feedback-checkmark" viewBox="0 0 32 32">
<path d="M27 4l-15 15-7-7-5 5 12 12 20-20z"></path>
</symbol>
<symbol id="alert-notification" viewBox="0 0 32 32">
<path d="M16 3c-3.472 0-6.737 1.352-9.192 3.808s-3.808 5.72-3.808 9.192c0 3.472 1.352 6.737 3.808 9.192s5.72 3.808 9.192 3.808c3.472 0 6.737-1.352 9.192-3.808s3.808-5.72 3.808-9.192c0-3.472-1.352-6.737-3.808-9.192s-5.72-3.808-9.192-3.808zM16 0v0c8.837 0 16 7.163 16 16s-7.163 16-16 16c-8.837 0-16-7.163-16-16s7.163-16 16-16zM14 22h4v4h-4zM14 6h4v12h-4z"></path>
</symbol>
<symbol id="alert-info" viewBox="0 0 32 32">
<path d="M14 9.5c0-0.825 0.675-1.5 1.5-1.5h1c0.825 0 1.5 0.675 1.5 1.5v1c0 0.825-0.675 1.5-1.5 1.5h-1c-0.825 0-1.5-0.675-1.5-1.5v-1z"></path>
<path d="M20 24h-8v-2h2v-6h-2v-2h6v8h2z"></path>
<path d="M16 0c-8.837 0-16 7.163-16 16s7.163 16 16 16 16-7.163 16-16-7.163-16-16-16zM16 29c-7.18 0-13-5.82-13-13s5.82-13 13-13 13 5.82 13 13-5.82 13-13 13z"></path>
</symbol>
<symbol id="alert-checkmark" viewBox="0 0 32 32">
<path d="M12.42 28.678l-12.433-12.238 6.168-6.071 6.265 6.167 13.426-13.214 6.168 6.071-19.594 19.285zM3.372 16.441l9.048 8.905 16.208-15.953-2.782-2.739-13.426 13.214-6.265-6.167-2.782 2.739z"></path>
</symbol>
<symbol id="audi" viewBox="0 0 120 90">
<path d="M109.112 40.986a17.22 17.22 0 0 0-1.016-3.285 18.132 18.132 0 0 0-1.605-2.971 17.434 17.434 0 0 0-2.139-2.59 17.2 17.2 0 0 0-2.593-2.138 16.798 16.798 0 0 0-2.969-1.606 17.177 17.177 0 0 0-3.285-1.017 17.801 17.801 0 0 0-3.519-.356 17.516 17.516 0 0 0-6.803 1.373c-1.034.434-2.03.981-2.972 1.606-.355.234-.693.495-1.033.756-.34-.261-.678-.513-1.033-.756a16.763 16.763 0 0 0-2.973-1.606 17.18 17.18 0 0 0-3.283-1.017 17.75 17.75 0 0 0-3.52-.356 17.448 17.448 0 0 0-6.803 1.373 18.02 18.02 0 0 0-2.974 1.606c-.374.252-.738.521-1.095.799a23.768 23.768 0 0 0-1.085-.799 16.754 16.754 0 0 0-2.972-1.606 17.136 17.136 0 0 0-3.283-1.017 17.763 17.763 0 0 0-3.519-.356 17.526 17.526 0 0 0-6.803 1.373 17.834 17.834 0 0 0-2.971 1.606c-.375.252-.731.514-1.078.791a19.351 19.351 0 0 0-1.078-.791 16.789 16.789 0 0 0-2.972-1.606 17.136 17.136 0 0 0-3.283-1.017 17.756 17.756 0 0 0-3.519-.356 17.48 17.48 0 0 0-9.773 2.979 17.47 17.47 0 0 0-2.589 2.138 17.417 17.417 0 0 0-2.138 2.59c-.6.938-1.138 1.937-1.572 2.971a17.108 17.108 0 0 0-1.016 3.285 17.699 17.699 0 0 0 .006 7.038 17.34 17.34 0 0 0 1.016 3.274 17.927 17.927 0 0 0 1.607 2.972A17.617 17.617 0 0 0 17.202 59a16.892 16.892 0 0 0 2.97 1.604 17.368 17.368 0 0 0 6.803 1.374 17.77 17.77 0 0 0 3.519-.354 17.503 17.503 0 0 0 3.283-1.02A17.89 17.89 0 0 0 36.748 59c.365-.252.73-.515 1.078-.791a16.9 16.9 0 0 0 4.048 2.395c1.052.443 2.156.791 3.276 1.02 1.146.232 2.336.354 3.519.354a17.77 17.77 0 0 0 3.519-.354 17.535 17.535 0 0 0 7.349-3.428c.356.279.723.552 1.096.804a16.892 16.892 0 0 0 2.974 1.604 17.359 17.359 0 0 0 6.803 1.374c1.184 0 2.371-.121 3.518-.354a17.48 17.48 0 0 0 3.283-1.02A18.11 18.11 0 0 0 80.184 59c.355-.233.695-.496 1.035-.757.338.261.678.513 1.031.757.939.633 1.93 1.171 2.974 1.604 1.051.443 2.152.791 3.273 1.02a17.84 17.84 0 0 0 3.52.354c1.183 0 2.371-.121 3.521-.354a17.405 17.405 0 0 0 3.28-1.02A17.919 17.919 0 0 0 101.792 59c.933-.626 1.799-1.349 2.59-2.14s1.513-1.657 2.14-2.59a16.646 16.646 0 0 0 1.604-2.972 17.102 17.102 0 0 0 1.019-3.284 17.82 17.82 0 0 0 .354-3.518 19.313 19.313 0 0 0-.387-3.51zM19.354 33.21a14.07 14.07 0 0 1 2.311-1.261 13.338 13.338 0 0 1 2.553-.79 13.777 13.777 0 0 1 2.746-.279c.921 0 1.851.097 2.745.279.877.182 1.738.442 2.555.79.808.339 1.59.766 2.311 1.261.157.104.313.217.47.33-.313.382-.608.782-.877 1.19a16.981 16.981 0 0 0-1.607 2.971 17.11 17.11 0 0 0-1.017 3.285 17.625 17.625 0 0 0 0 7.038 17.27 17.27 0 0 0 1.017 3.274 17.854 17.854 0 0 0 1.607 2.972c.278.41.574.81.886 1.191-.156.112-.313.227-.478.337-.729.496-1.501.913-2.311 1.261a13.7 13.7 0 0 1-5.3 1.069c-.921 0-1.851-.096-2.746-.278a13.31 13.31 0 0 1-4.865-2.052 14.187 14.187 0 0 1-2.014-1.657 13.903 13.903 0 0 1-2.92-4.329 13.305 13.305 0 0 1-.79-2.557 13.758 13.758 0 0 1 0-5.49c.183-.878.443-1.738.79-2.556.34-.808.764-1.59 1.26-2.311a14.212 14.212 0 0 1 1.66-2.016 13.403 13.403 0 0 1 2.014-1.672zm18.019 18.913a13.864 13.864 0 0 1-1.26-2.311 13.447 13.447 0 0 1-.79-2.557 13.776 13.776 0 0 1-.278-2.746 13.712 13.712 0 0 1 1.068-5.3c.339-.808.765-1.59 1.26-2.311.139-.208.296-.417.453-.625.156.208.304.417.451.625a13.37 13.37 0 0 1 2.051 4.867c.183.894.278 1.823.278 2.744a13.696 13.696 0 0 1-1.069 5.303c-.339.81-.764 1.59-1.26 2.311-.138.209-.294.418-.451.627a7.3 7.3 0 0 1-.453-.627zm4.089 2.154a16.897 16.897 0 0 0 1.608-2.973 17.043 17.043 0 0 0 1.016-3.281 17.62 17.62 0 0 0 0-7.039 17.51 17.51 0 0 0-1.016-3.285 17.85 17.85 0 0 0-1.608-2.971 16.1 16.1 0 0 0-.886-1.19c.156-.113.313-.227.469-.33.73-.495 1.503-.912 2.311-1.261a13.325 13.325 0 0 1 2.554-.79 13.774 13.774 0 0 1 2.745-.279c.92 0 1.851.097 2.745.279a13.5 13.5 0 0 1 2.554.79 12.9 12.9 0 0 1 2.311 1.261c.167.113.33.228.486.348a16.981 16.981 0 0 0-2.475 4.144 17.182 17.182 0 0 0-1.017 3.285 17.598 17.598 0 0 0-.356 3.518c0 1.182.122 2.373.356 3.52a17.27 17.27 0 0 0 1.017 3.274 18.002 18.002 0 0 0 1.607 2.972c.277.41.564.801.877 1.184-.165.122-.322.234-.495.347-.729.496-1.502.913-2.311 1.263a13.693 13.693 0 0 1-5.299 1.067c-.921 0-1.85-.096-2.745-.278a13.447 13.447 0 0 1-2.554-.789 13.297 13.297 0 0 1-2.311-1.263 5.837 5.837 0 0 1-.469-.337c.315-.377.611-.775.886-1.186zm17.628-2.154a13.791 13.791 0 0 1-1.26-2.311 13.45 13.45 0 0 1-.791-2.557 13.776 13.776 0 0 1-.278-2.746 13.715 13.715 0 0 1 1.069-5.3 12.9 12.9 0 0 1 1.26-2.311c.14-.208.287-.409.435-.608.147.2.295.4.435.608.495.729.913 1.503 1.26 2.311.349.826.617 1.687.789 2.556a13.611 13.611 0 0 1 0 5.49c-.18.878-.44 1.737-.789 2.557-.34.81-.765 1.59-1.26 2.311-.139.209-.287.408-.435.609-.148-.201-.294-.4-.435-.609zm4.066 2.154a16.827 16.827 0 0 0 1.607-2.973 17.48 17.48 0 0 0 1.018-3.281 17.692 17.692 0 0 0 0-7.039 17.665 17.665 0 0 0-1.018-3.285 18.142 18.142 0 0 0-1.607-2.971 16.773 16.773 0 0 0-.869-1.182c.156-.123.322-.234.488-.348a13.341 13.341 0 0 1 4.864-2.051 13.784 13.784 0 0 1 2.746-.278 13.603 13.603 0 0 1 5.303 1.069c.81.338 1.59.764 2.312 1.26.14.095.278.192.407.287-.321.399-.625.808-.911 1.234a16.785 16.785 0 0 0-1.607 2.971 17.385 17.385 0 0 0-1.372 6.803c0 1.18.119 2.372.354 3.518.228 1.12.573 2.227 1.018 3.275a18.183 18.183 0 0 0 1.607 2.971c.284.428.59.836.92 1.233-.138.104-.277.2-.416.296a13.333 13.333 0 0 1-4.867 2.051c-.896.184-1.824.276-2.748.276a13.538 13.538 0 0 1-5.299-1.067 13.282 13.282 0 0 1-2.311-1.26c-.166-.114-.332-.227-.488-.35.305-.359.592-.756.869-1.159zm17.541-2.154a13.72 13.72 0 0 1-1.26-2.311 13.033 13.033 0 0 1-.791-2.557 13.777 13.777 0 0 1-.279-2.746c0-.92.096-1.851.279-2.744.184-.878.44-1.738.791-2.556.34-.808.764-1.59 1.26-2.311.156-.234.322-.46.496-.688a13.798 13.798 0 0 1 1.754 2.999c.348.826.617 1.687.791 2.556.182.894.277 1.823.277 2.744a13.622 13.622 0 0 1-1.068 5.303 12.77 12.77 0 0 1-1.26 2.311c-.156.234-.32.461-.494.688a14.749 14.749 0 0 1-.496-.688zm4.177 2.154a16.836 16.836 0 0 0 1.609-2.973 17.554 17.554 0 0 0 1.018-3.281 17.692 17.692 0 0 0 0-7.039 17.665 17.665 0 0 0-1.018-3.285 18.077 18.077 0 0 0-1.609-2.971 17.247 17.247 0 0 0-.909-1.234c.139-.095.277-.2.416-.295a13.342 13.342 0 0 1 4.87-2.051 13.741 13.741 0 0 1 2.744-.278c.92 0 1.85.096 2.745.278.878.183 1.736.442 2.554.791.812.338 1.59.764 2.313 1.26a13.73 13.73 0 0 1 3.674 3.683c.496.73.914 1.504 1.262 2.312a13.71 13.71 0 0 1 1.068 5.3 13.775 13.775 0 0 1-1.068 5.301c-.34.808-.766 1.591-1.262 2.312a14.333 14.333 0 0 1-1.658 2.017 12.964 12.964 0 0 1-2.016 1.658 14.04 14.04 0 0 1-2.313 1.262 13.64 13.64 0 0 1-5.299 1.065c-.923 0-1.853-.094-2.744-.276a13.818 13.818 0 0 1-2.56-.789 13.38 13.38 0 0 1-2.31-1.262c-.139-.097-.277-.19-.416-.296.32-.375.627-.781.909-1.209z"/>
</symbol>
<symbol id="bmw" viewBox="0 0 120 90">
<path d="M59.5 9.5c-19.33 0-35 15.67-35 35s15.67 35 35 35 35-15.67 35-35-15.67-35-35-35zm0 67.715c-18.071 0-32.715-14.645-32.715-32.715 0-18.071 14.644-32.715 32.715-32.715 18.07 0 32.715 14.644 32.715 32.715 0 18.07-14.645 32.715-32.715 32.715zm-14.789-49.7c1.112-1.172 1.757-2.548.644-3.837-.615-.703-1.641-.85-2.489-.498l-.088.029.029-.087c.118-.322.205-1.406-.703-2.139a2.115 2.115 0 0 0-1.553-.439c-1.054.117-1.845.82-4.071 3.28a45.943 45.943 0 0 0-2.226 2.666l6.063 5.741c2.022-2.226 2.813-3.046 4.394-4.716zm-7.879-1.406c1.23-1.494 2.519-2.841 3.105-3.369.175-.175.381-.351.645-.409.41-.118.82.176.908.585.088.409-.176.791-.439 1.113-.674.732-3.046 3.222-3.046 3.222l-1.173-1.142zm5.418-.966c.293-.322.498-.498.702-.585.264-.117.557-.146.821.029a.73.73 0 0 1 .322.762c-.088.352-.352.674-.585.938-.322.352-3.046 3.251-3.046 3.251l-1.259-1.171c0-.002 2.313-2.433 3.045-3.224zm14.352-8.757-.03-.411.117.38 1.933 4.335h1.756l1.935-4.335.117-.38-.03.411.205 5.798c.672.059 1.375.146 2.08.263l-.322-8.581c-.967-.117-1.934-.176-2.898-.234l-1.904 4.744-.059.352-.059-.352-1.904-4.744c-.966.029-1.933.117-2.899.234l-.322 8.582a26.611 26.611 0 0 1 2.079-.263l.205-5.799zm27.15 8.932-4.48 2.958-.293.264.234-.322 1.991-3.955-1.405-1.405-3.953 1.991-.322.234.265-.293 2.958-4.481a55.567 55.567 0 0 0-1.67-1.348l-4.51 7.089a32.495 32.495 0 0 1 1.787 1.523l4.246-2.197.264-.205-.204.264-2.196 4.218a28.799 28.799 0 0 1 1.553 1.845l7.088-4.511a34.815 34.815 0 0 0-1.353-1.669zM38.763 44.5H59.5V23.763A20.7 20.7 0 0 0 38.763 44.5zM59.5 65.236c11.452 0 20.736-9.256 20.736-20.736H59.5v20.736z"/>
</symbol>
<symbol id="chevrolet" viewBox="0 0 120 90">
<path d="m107.766 33.607-28.612.004c-.729 0-1.203-.214-1.203-1.22v-4.249c0-1.224-.659-1.871-1.854-1.871H43.338c-1.226 0-1.855.691-1.855 1.859v4.248c0 .895-.424 1.221-1.209 1.221l-18.75.004c-1.437 0-2.273.685-2.705 1.582L9.688 53.03a1.654 1.654 0 0 0-.188.761c0 .703.459 1.618 1.74 1.618l29.03-.004c.895 0 1.207.406 1.207 1.221v4.243c0 1.28.741 1.858 1.86 1.858h32.751c1.115 0 1.859-.541 1.859-1.848l-.004-4.242c0-.865.365-1.222 1.203-1.222l18.21-.003c1.252 0 2.156-.329 2.787-1.497l9.025-17.637c.199-.382.33-.598.33-1.049.004-1.203-1.029-1.622-1.732-1.622zm-7.214 7.108-4.353 8.517c-.273.496-.756.512-1.098.512H73.507c-.895 0-1.22.402-1.22 1.217v4.896c0 .811-.359 1.205-1.229 1.205H48.371c-.761 0-1.226-.27-1.226-1.217V50.95c0-.896-.411-1.213-1.225-1.213H19.441c-.65 0-1.098-.406-1.098-.976 0-.168.041-.319.113-.46l4.354-8.512c.167-.297.439-.514 1.095-.514l22.017.006c.76 0 1.231-.307 1.231-1.229v-4.898c0-.865.381-1.212 1.218-1.212l22.683-.005c.815 0 1.222.362 1.222 1.229v4.894c0 .843.392 1.213 1.23 1.213h26.058c.83 0 1.104.545 1.104.979-.003.162-.044.32-.116.463z"/>
</symbol>
<symbol id="citroen" viewBox="0 0 120 90">
<path d="M92.386 72.68c.033-.811.064-1.834.064-2.87 0-2.216-1.817-4.317-1.833-4.335C81.33 55.183 65.639 39.959 59.803 39.43c-.118-.012-.303 0-.303 0 .003 7.025.237 6.697-3.908 8.447-.427.182-14.325 6.055-27.58 18.063-1.611 1.821-1.462 3.643-1.462 3.643 0 1.102.034 1.855.071 3.092 6.114-5.241 24.257-20.137 32.879-20.137 8.618-.001 26.774 14.905 32.886 20.142zm-.25-8.592c.096.107 2.364 2.701 2.364 5.722 0 2.353-.157 4.721-.157 4.737-.005.115-.06 1.115-.613 1.387a.654.654 0 0 1-.287.065c-.21 0-.443-.095-.701-.284-.239-.211-23.913-21.113-33.242-21.113-9.329 0-33.002 20.902-33.252 21.123-.25.183-.48.275-.686.275a.65.65 0 0 1-.288-.066c-.556-.271-.611-1.271-.616-1.381-.001-.024-.158-2.391-.158-4.743 0-3.021 2.268-5.614 2.365-5.722l.001-.001c.986-1.093 24.224-26.734 32.634-26.734 8.412 0 31.649 25.641 32.636 26.735zm.217-15.797c.033-.807.064-1.83.064-2.866 0-2.214-1.815-4.313-1.832-4.331-9.277-10.281-24.953-25.49-30.782-26.018-.118-.013-.303-.001-.303-.001.003 7.019.237 6.69-3.903 8.44-.426.18-14.31 6.048-27.553 18.043-1.609 1.818-1.46 3.639-1.46 3.639 0 1.101.034 1.854.071 3.089C32.762 43.05 50.887 28.17 59.501 28.17c8.608 0 26.746 14.89 32.852 20.121zm-.249-8.583c.096.108 2.361 2.698 2.361 5.717 0 2.35-.155 4.715-.158 4.731-.003.115-.058 1.113-.611 1.385a.64.64 0 0 1-.287.065c-.209 0-.443-.093-.7-.283-.237-.211-23.889-21.092-33.209-21.092-9.319 0-32.969 20.881-33.218 21.103-.25.184-.479.274-.686.274a.637.637 0 0 1-.288-.066c-.555-.271-.609-1.271-.614-1.378a81.537 81.537 0 0 1-.158-4.739c0-3.02 2.266-5.609 2.362-5.716l.001-.001C27.883 38.616 51.098 13 59.5 13c8.403 0 31.617 25.616 32.604 26.708z"/>
</symbol>
<symbol id="daewoo" viewBox="0 0 120 90">
<path d="M101.812 32.682c-17.305 2.285-33.125 21.74-31.047 45.755 21.963-3.874 41.629-24.339 31.047-45.755zm-4.305-6.754c-1.439-1.914-5.564-5.848-8.179-7.48C76.951 30.944 64.617 51.1 66.28 79.104c.876-.164 1.945-.235 2.894-.416-.577-19.426 6.22-40.976 28.333-52.76zM82.502 14.53c-2.599-1.366-7.317-3.043-10.479-3.607-6.201 22.425-9.733 30.099-9.972 68.522l2.837-.178C63.997 51.93 70.153 38.41 82.502 14.53zM64.603 9.781c-3.177-.296-6.797-.401-10.552-.104 3.37 23.375 3.754 33.274 4.393 69.813a30.61 30.61 0 0 0 2.345-.03c-.147-36.302.638-46.096 3.814-69.679zM36.494 14.53c12.333 23.88 18.505 37.4 17.601 64.738l2.85.176c-.237-38.421-3.771-46.095-9.988-68.521-3.161.564-7.866 2.242-10.463 3.607zM21.503 25.928c22.114 11.785 28.896 33.333 28.318 52.759.965.179 2.048.252 2.909.416C54.377 51.1 42.073 30.945 29.682 18.449c-2.613 1.632-6.724 5.565-8.179 7.479zm-4.302 6.754c-10.612 21.416 9.066 41.88 31.032 45.755 2.063-24.013-13.744-43.47-31.032-45.755z"/>
</symbol>
<symbol id="ford" viewBox="0 0 120 90">
<path d="M59.5 25.73c-27.726 0-50 8.333-50 18.77 0 10.358 22.429 18.77 50 18.77s50-8.411 50-18.77c.078-10.281-22.43-18.77-50-18.77zm0 35.904c-26.479 0-47.897-7.633-47.897-17.134 0-9.424 21.495-17.134 47.897-17.134 26.479 0 47.897 7.633 47.897 17.134.077 9.501-21.418 17.134-47.897 17.134zm19.704-13.318v.155c0 .078.155.156.233.233 0 0 .078.078 0 .156-.312.701-.623 1.091-1.012 1.637a6.74 6.74 0 0 1-1.245 1.322c-.702.624-1.793 1.247-2.648.857-.391-.233-.545-.701-.545-1.169 0-1.168.545-2.414 1.557-3.66 1.168-1.479 2.569-2.258 3.428-1.791.933.392.699 1.481.232 2.26zm-24.766-7.788a1.5 1.5 0 0 1 .545-1.402c.233-.233.545-.233.779-.078s.078.624-.078 1.013c-.234.39-.623.701-1.013.701-.155-.078-.233-.078-.233-.234zM59.5 28.845c-25.545 0-46.262 7.088-46.262 15.732 0 8.567 20.716 15.654 46.262 15.654 25.545 0 46.263-7.086 46.263-15.731S85.045 28.845 59.5 28.845zM35.747 54.858c-2.727 0-5.14-1.635-5.452-4.595-.155-1.636.312-3.038 1.247-4.284.779-1.091 2.181-1.947 3.349-2.181.39-.078.857 0 1.091.233.312.391.234.779-.078 1.013-.856.468-1.947 1.247-2.492 2.259-.467.855-.545 1.947.156 2.882 1.09 1.635 4.128 1.713 7.009-.935a16.032 16.032 0 0 0 1.947-2.025c1.246-1.402 1.635-1.946 3.349-4.283v-.077l-.077-.078c-1.091 0-2.103.389-3.037 1.09-.233.233-.624.155-.856-.077-.155-.312-.077-.701.234-.856 1.479-1.09 3.193-1.246 4.829-1.557 0 0 .155 0 .233-.156.701-.856 1.246-1.713 1.947-2.569.779-.936 1.714-1.714 2.415-2.415 1.013-.856 1.713-1.168 2.336-1.558.155-.077 0-.233-.078-.233-3.738-.7-7.633-1.636-11.292-.233-2.57.935-3.661 2.96-3.116 4.361.389.935 1.636 1.091 2.881.545 1.013-.467 1.869-1.246 2.57-2.258.39-.546 1.091-.155.701.777-1.091 2.57-3.194 4.596-5.686 4.673-2.18.078-3.504-1.479-3.504-3.427 0-3.816 4.284-6.387 8.801-6.775 5.452-.467 10.592 1.013 15.966 1.636 4.128.467 8.1.545 12.227-.468.468-.077.857.233.779.701-.078.701-.624 1.401-1.948 2.181-1.558.856-3.192 1.09-4.906 1.09-4.128 0-7.943-1.558-11.916-2.414 0 .155.078.389-.077.467-2.181 1.636-4.206 3.271-5.53 5.53-.078.077 0 .077.077.077 1.168-.077 2.181-.077 3.271-.155.155 0 .155-.078.155-.234-.077-.777.155-1.713.856-2.336.701-.623 1.636-.701 2.181-.233.701.545.623 1.48.234 2.181-.389.701-1.013 1.09-1.557 1.324 0 0-.156 0-.078.155 0 .155.856.623.935.779.078.077 0 .312-.077.389-.078.078-.234.155-.39.155s-.233-.077-.389-.155c-.389-.233-.857-.545-1.09-.935-.078-.155-.155-.155-.39-.155a83.302 83.302 0 0 0-4.206.389c-.312 0-.312.078-.389.234-1.947 3.192-4.05 6.698-6.386 9.034-2.496 2.801-4.599 3.502-6.779 3.502zm53.191-15.732c-.389.624-7.709 11.837-8.176 12.929-.156.39-.156.624 0 .856.389.545 1.245.234 1.791-.155 1.558-1.091 2.647-2.415 3.894-3.583.078-.078.156-.078.233 0 .156.156.469.39.624.546.078.078.078.156 0 .234a24.891 24.891 0 0 1-3.738 3.815c-1.947 1.479-3.895 1.869-4.905.934a1.82 1.82 0 0 1-.546-1.322c0-.234-.156-.234-.234-.156-1.169 1.167-3.192 2.414-4.984 1.479-1.557-.777-1.869-2.569-1.557-4.126 0 0 0-.235-.234-.157a5.933 5.933 0 0 1-1.245.701c-.624.233-.935.311-1.559.311-.778 0-1.401-.311-1.869-1.09-.233-.389-.39-1.012-.39-1.479 0-.078-.078-.156-.156 0-1.246 1.869-2.414 3.738-3.66 5.685-.077.078-.155.156-.233.156H59.58c-.155 0-.233-.078-.155-.233.467-.856 2.803-4.283 4.438-7.243.467-.777.389-1.246.077-1.402-.312-.233-1.011.078-1.635.547-1.558 1.167-2.881 3.036-3.582 3.894-.389.467-.779 1.245-1.792 2.336-1.635 1.791-3.816 2.804-5.841 2.103-1.168-.391-1.947-1.324-2.258-2.414-.078-.234-.156-.313-.312-.156-.312.391-1.013 1.013-1.635 1.402-.078.078-.233.156-.39.078-.155-.078-.545-.624-.624-.856-.077-.156 0-.233.079-.312.856-.702 1.246-1.169 1.635-1.558.233-.313.467-.701.701-1.324.467-1.246 1.635-3.583 3.895-4.83a8.105 8.105 0 0 1 2.727-.935c.389-.078.778 0 .856.312.077.156.155.468.233.623s0 .234-.155.313c-1.324.545-2.648 1.325-3.583 2.569-1.09 1.402-1.324 3.116-.623 4.05.545.702 1.323.857 2.18.546 1.247-.391 2.259-1.479 2.804-2.804.545-1.401.701-2.96.233-4.439-.078-.233 0-.467.155-.545.312-.233.779-.468.857-.546.312-.155.623-.077.778.155.467.624.701 1.558.701 2.571 0 .234.078.234.233.078.777-.857 1.558-1.714 2.335-2.414.779-.624 1.792-1.092 2.649-1.092 1.168 0 1.791.856 1.713 2.259 0 .156.156.156.233.078.39-.545.624-.778 1.014-1.09.855-.701 1.635-1.013 2.568-.935 1.091.077 1.948 1.09 1.792 2.181-.077.702-.545 1.402-1.167 1.714A1.53 1.53 0 0 1 69 47.229c-.39-.313-.468-.855-.39-1.324 0-.078-.078-.233-.234-.078-1.09 1.09-1.168 2.493-.467 3.193.777.702 1.869.234 2.726-.312 1.557-1.011 2.726-2.335 4.05-3.426.934-.701 1.947-1.325 3.115-1.48.622-.078 1.245-.078 1.869.233.856.313 1.324 1.013 1.402 1.636 0 .155.156.233.232.078.624-1.013 4.206-6.308 4.518-6.854.078-.155.156-.233.39-.233h2.492c.235.308.235.386.235.464z"/>
</symbol>
<symbol id="honda" viewBox="0 0 120 90">
<path d="M79.529 15.289c-1.93 8.876-2.7 12.93-4.438 19.297-1.735 6.37-2.703 11.772-4.822 14.667-1.545 2.122-4.055 3.474-6.756 3.665-2.51.193-5.211.193-7.719 0-2.701-.191-5.209-1.545-6.753-3.665-2.123-2.702-3.281-8.49-4.824-14.667-1.544-6.174-2.509-10.42-4.438-19.297l-2.896.193c-1.157 0-2.123.192-3.088.386 0 0 1.158 18.138 1.737 25.859.58 8.104 1.544 21.613 2.315 32.033 0 0 1.737.194 4.438.386 2.701.193 4.246.193 4.246.193 1.158-4.632 2.702-10.809 4.245-13.508.965-1.545 2.703-2.508 4.633-2.508 1.35-.195 2.701-.195 4.245-.195 1.351 0 2.703 0 4.246.195 1.93 0 3.666.965 4.632 2.508 1.737 2.702 3.088 8.876 4.245 13.508 0 0 1.353 0 4.247-.193 2.896-.191 4.438-.386 4.438-.386.966-10.227 1.931-23.931 2.315-32.033.578-7.721 1.736-25.859 1.736-25.859-.967-.193-1.93-.193-3.088-.386l-2.896-.193zm22.772 10.807c-1.158-11.579-8.878-13.895-15.632-15.052a154.97 154.97 0 0 0-13.313-1.158C69.879 9.693 61.97 9.5 59.652 9.5c-2.315 0-10.42.193-13.7.386-4.631 0-9.071.386-13.509 1.158-6.754 1.157-14.474 3.666-15.631 15.052-.386 3.859-.386 7.718-.386 11.578 0 5.21.386 10.42 1.159 15.629.386 4.44 1.35 8.688 2.508 13.124 1.737 5.019 3.28 6.562 5.018 7.913 3.087 2.121 6.368 3.279 10.034 3.857a227.694 227.694 0 0 0 48.63 0c3.666-.578 6.947-1.736 10.033-3.857 1.93-1.545 3.475-2.896 5.02-7.913 1.156-4.243 2.122-8.684 2.508-13.124.579-5.209.966-10.419 1.158-15.629.193-3.86 0-7.718-.193-11.578zm-4.246 19.298c-.193 6.367-1.156 12.543-2.701 18.72-.578 2.895-2.123 5.402-4.246 7.527-2.895 2.314-6.366 3.666-9.842 3.858a204.209 204.209 0 0 1-43.419 0c-3.666-.192-6.947-1.544-9.842-3.858-2.123-2.125-3.473-4.634-4.246-7.527-1.543-6.177-2.315-12.352-2.701-18.72-.386-6.367-.386-12.929.193-19.296 1.158-7.333 4.63-10.808 12.352-12.158 4.246-.771 8.685-1.158 12.929-1.352 3.667-.192 9.648-.386 13.122-.386 3.473 0 9.457 0 13.123.386 4.245.193 8.685.58 12.93 1.352 7.718 1.35 11.192 5.017 12.157 12.158.384 6.366.575 12.927.191 19.296z"/>
</symbol>
<symbol id="hyundai" viewBox="0 0 120 90">
<path d="M59.5 70.151c27.628 0 50-11.485 50-25.645 0-14.157-22.372-25.658-50-25.658-27.615 0-50 11.489-50 25.646s22.385 25.657 50 25.657zm9.391-12.6c-.816 1.923-2.265 6.06-5.548 7.695-1.009.474-2.255.724-3.333.758-.249.036-.415 0-.474 0-9.237 0-17.821-1.257-25.019-3.462-.058-.036-.225-.096-.225-.096-.723-.227-1.067-.533-1.067-.911 0-.322.154-.57.415-.818.095-.095.248-.226.438-.416 1.636-1.387 6.688-5.014 16.066-8.653 3.319-1.256 7.445-2.834 11.773-3.758 2.563-.491 11.965-1.9 6.974 9.661zm25.314-25.836c.154-.32.415-.593.854-.593.248-.036.532.033 1.008.344 5.869 3.616 9.377 8.133 9.377 13.03 0 8.856-11.357 16.444-27.577 19.776-1.043.226-1.73.226-1.98-.06-.153-.188-.226-.438 0-.782.097-.188.228-.345.438-.568 8.845-10.437 15.592-25.837 17.478-30.307.116-.367.26-.652.402-.84zm-43.941-.344c.818-1.921 2.265-6.061 5.549-7.695 1.007-.498 2.253-.724 3.332-.759h.499c9.2 0 17.795 1.293 24.981 3.462.059 0 .227.059.285.095.663.228 1.008.534 1.008.913 0 .344-.189.569-.416.818a8.152 8.152 0 0 1-.438.416c-1.672 1.387-6.652 5.015-16.066 8.606-3.318 1.293-7.445 2.834-11.773 3.794-2.562.509-11.952 1.934-6.961-9.65zm-9.058-6.652c1.042-.225 1.861-.225 2.075.059.154.154.226.438 0 .783-.095.189-.226.344-.415.593-8.857 10.436-15.592 25.835-17.478 30.271-.154.319-.285.629-.416.816-.19.32-.438.568-.853.593-.226 0-.534-.06-1.043-.343-5.869-3.616-9.486-8.135-9.486-13.03.048-8.822 11.407-16.421 27.616-19.742z"/>
</symbol>
<symbol id="mazda" viewBox="0 0 120 90">
<path d="M95.947 22.2c-.296-.354-.709-.768-1.004-1.122C86.082 11.567 71.609 9.5 59.441 9.5c-12.287 0-27.173 2.067-35.916 12.169-.119.177-.295.354-.414.531-4.253 5.139-6.911 12.405-6.911 22.212C16.2 74.656 40.774 79.5 59.441 79.5c18.726 0 43.359-4.844 43.359-35.088 0-9.807-2.599-17.132-6.853-22.212zm-64.683 4.785c5.848-8.979 16.895-11.165 28.177-11.165S81.593 17.888 87.5 26.689c.118.178.236.414.354.65-10.101 5.967-21.561 6.203-28.414 20.97-7.502-14.354-18.844-14.472-28.768-20.202.178-.354.414-.708.592-1.122zM59.441 73.18c-16.776.118-32.431-4.727-32.431-28.768 0-1.772 0-3.604.295-5.139.059-.355.178-.709.236-1.063 5.612 2.008 11.165 3.898 16.835 5.789 6.616 2.717 11.047 6.615 15.063 15.358 4.017-8.743 8.33-13.173 15.004-15.89 5.73-2.009 11.342-4.076 17.072-6.084.059.118.059.295.117.414.296 1.949.413 4.253.413 6.616.062 24.04-15.827 28.943-32.604 28.767z"/>
</symbol>
<symbol id="mercedes" viewBox="0 0 120 90">
<path d="M75.775 13.438C70.875 10.9 65.362 9.5 59.5 9.5s-11.375 1.4-16.275 3.938C32.112 19.3 24.5 31.025 24.5 44.5c0 13.475 7.612 25.2 18.813 31.063C48.125 78.013 53.638 79.5 59.5 79.5s11.287-1.487 16.188-4.025A34.799 34.799 0 0 0 94.5 44.5c0-13.475-7.612-25.2-18.725-31.062zM28 44.5c0-11.462 6.125-21.438 15.313-27.038 4.462-2.712 9.625-4.288 15.313-4.462l-3.938 28.612-11.375 8.838-11.55 9.013C29.4 55 28 49.925 28 44.5zm47.775 26.95C70.963 74.338 65.45 76 59.5 76s-11.55-1.662-16.275-4.55c-4.288-2.538-7.788-6.038-10.413-10.237l10.413-4.288 16.275-6.65 16.275 6.563 10.5 4.287c-2.625 4.287-6.3 7.787-10.5 10.325zm0-21L64.487 41.7 60.462 13c5.512.175 10.762 1.75 15.225 4.462C84.875 22.975 91 33.038 91 44.5c0 5.425-1.313 10.5-3.763 14.963L75.775 50.45z"/>
</symbol>
</defs>
</svg>
